<svg id="aa174908-7dbc-4d7c-9f2b-4a894d587780" data-name="Layer 1" xmlns="http://www.w3.org/2000/svg" viewBox="0 0 374.28936 337.1191"><defs><style>.a2a4046c-3dc4-45da-b2d8-f06568d515d1,.a8db2699-5431-427b-809b-b68db5ba2f56,.b1513a58-cb5b-4fa7-b67b-ab26b855b6c8,.b540d916-8b0e-45bc-9666-f542640f2cbb,.ba305753-2ebd-4f3e-9a6c-8fe31cc926fb,.badd8544-a6a3-47a8-a5c3-35c8998b8cfd,.f8228a19-042a-4036-87ba-fb29975c7e37{fill:#fff;}.b1513a58-cb5b-4fa7-b67b-ab26b855b6c8,.b39f9600-c208-4df1-8253-8de4acaf7b12{opacity:0.5;}.b540d916-8b0e-45bc-9666-f542640f2cbb{opacity:0.6;}.badd8544-a6a3-47a8-a5c3-35c8998b8cfd{opacity:0.9;}.ba305753-2ebd-4f3e-9a6c-8fe31cc926fb{opacity:0.8;}.f8228a19-042a-4036-87ba-fb29975c7e37{opacity:0.7;}.b39f9600-c208-4df1-8253-8de4acaf7b12{fill:none;stroke:#fff;stroke-linecap:round;stroke-linejoin:round;stroke-width:0;}.a2a4046c-3dc4-45da-b2d8-f06568d515d1{opacity:0.95;}</style></defs><path class="b1513a58-cb5b-4fa7-b67b-ab26b855b6c8" d="M64.26924,192.49806a5.7096,5.7096,0,0,1,5.70943-5.70943h-37.013a5.70949,5.70949,0,0,1,0,11.419h37.013A5.70954,5.70954,0,0,1,64.26924,192.49806Z" transform="translate(-14.71064 -43.06725)"/><path class="b540d916-8b0e-45bc-9666-f542640f2cbb" d="M64.26924,138.55341a5.70922,5.70922,0,0,1,5.70837-5.70943H19.34188c-.139.49167-.28549.98-.41863,1.47419q-.36141,1.34052-.69279,2.69236-.38316,1.56215-.72472,3.14019c-.19795.90994-.38894,1.82248-.56673,2.74019-.08825.455-.16177.91513-.24495,1.37192H69.97879A5.70939,5.70939,0,0,1,64.26924,138.55341Z" transform="translate(-14.71064 -43.06725)"/><path class="badd8544-a6a3-47a8-a5c3-35c8998b8cfd" d="M69.97879,132.84386l-.00118.00012H71.16a5.70943,5.70943,0,1,1,0,11.41885H95.77277a106.51554,106.51554,0,0,1,3.11074-11.419Z" transform="translate(-14.71064 -43.06725)"/><path class="b540d916-8b0e-45bc-9666-f542640f2cbb" d="M76.86938,138.55341A5.70921,5.70921,0,0,0,71.16,132.844H69.97761a5.70943,5.70943,0,0,0,.00118,11.41885H71.16A5.70929,5.70929,0,0,0,76.86938,138.55341Z" transform="translate(-14.71064 -43.06725)"/><path class="badd8544-a6a3-47a8-a5c3-35c8998b8cfd" d="M76.86938,138.55341A5.70921,5.70921,0,0,0,71.16,132.844H69.97761a5.70943,5.70943,0,0,0,.00118,11.41885H71.16A5.70929,5.70929,0,0,0,76.86938,138.55341Z" transform="translate(-14.71064 -43.06725)"/><path class="ba305753-2ebd-4f3e-9a6c-8fe31cc926fb" d="M64.26924,120.04684a5.70939,5.70939,0,0,1,5.70943-5.70954h-43.758a122.58366,122.58366,0,0,0-4.64608,11.419H69.97867A5.70937,5.70937,0,0,1,64.26924,120.04684Z" transform="translate(-14.71064 -43.06725)"/><path class="b1513a58-cb5b-4fa7-b67b-ab26b855b6c8" d="M90.454,114.3373a5.70949,5.70949,0,1,1,0,11.419h11.04878a106.74026,106.74026,0,0,1,5.53858-11.419Z" transform="translate(-14.71064 -43.06725)"/><path class="ba305753-2ebd-4f3e-9a6c-8fe31cc926fb" d="M96.16359,120.04684A5.70934,5.70934,0,0,0,90.454,114.3373H69.97867a5.70949,5.70949,0,0,0,0,11.419H90.454A5.70932,5.70932,0,0,0,96.16359,120.04684Z" transform="translate(-14.71064 -43.06725)"/><path class="ba305753-2ebd-4f3e-9a6c-8fe31cc926fb" d="M96.16359,120.04684A5.70934,5.70934,0,0,0,90.454,114.3373H69.97867a5.70949,5.70949,0,0,0,0,11.419H90.454A5.70932,5.70932,0,0,0,96.16359,120.04684Z" transform="translate(-14.71064 -43.06725)"/><path class="b540d916-8b0e-45bc-9666-f542640f2cbb" d="M83.56333,102.32768a5.7094,5.7094,0,0,1,5.70955-5.70943H43.20323a5.70943,5.70943,0,0,1,.00117,11.41886H89.2717A5.70922,5.70922,0,0,1,83.56333,102.32768Z" transform="translate(-14.71064 -43.06725)"/><path class="a8db2699-5431-427b-809b-b68db5ba2f56" d="M48.91277,102.32768a5.7094,5.7094,0,0,0-5.70954-5.70943H36.35941a123.42433,123.42433,0,0,0-6.99275,11.419H43.20323l.00117-.00012A5.70922,5.70922,0,0,0,48.91277,102.32768Z" transform="translate(-14.71064 -43.06725)"/><path class="ba305753-2ebd-4f3e-9a6c-8fe31cc926fb" d="M106.59816,96.61825a5.70943,5.70943,0,1,1,0,11.41886H89.2717l.00118.00012h21.584a107.44289,107.44289,0,0,1,8.61009-11.419Z" transform="translate(-14.71064 -43.06725)"/><path class="b540d916-8b0e-45bc-9666-f542640f2cbb" d="M112.3077,102.32768a5.70947,5.70947,0,0,0-5.70954-5.70943H89.27288a5.70943,5.70943,0,0,0-.00118,11.41886h17.32646A5.7094,5.7094,0,0,0,112.3077,102.32768Z" transform="translate(-14.71064 -43.06725)"/><path class="ba305753-2ebd-4f3e-9a6c-8fe31cc926fb" d="M112.3077,102.32768a5.70947,5.70947,0,0,0-5.70954-5.70943H89.27288a5.70943,5.70943,0,0,0-.00118,11.41886h17.32646A5.7094,5.7094,0,0,0,112.3077,102.32768Z" transform="translate(-14.71064 -43.06725)"/><path class="f8228a19-042a-4036-87ba-fb29975c7e37" d="M96.16359,66.10207a5.7093,5.7093,0,0,1,5.70943-5.70943H75.03843c-.17945.10687-.36466.2049-.54352.31259-.51123.308-1.01209.63141-1.51849.94658-1.06181.66087-2.11679,1.33186-3.15669,2.02383-.566.37656-1.12591.76113-1.68533,1.14665q-1.47042,1.01357-2.90927,2.06884c-.54163.39694-1.08372.79282-1.61852,1.19837-1.019.77244-2.02077,1.56609-3.01472,2.36917-.435.35158-.87777.69409-1.30782,1.05132-.11818.09815-.23046.203-.34828.30163H101.873A5.70947,5.70947,0,0,1,96.16359,66.10207Z" transform="translate(-14.71064 -43.06725)"/><path class="b540d916-8b0e-45bc-9666-f542640f2cbb" d="M102.26678,60.39264a5.70949,5.70949,0,1,1,0,11.419h48.38474a105.67249,105.67249,0,0,1,36.71233-11.419Z" transform="translate(-14.71064 -43.06725)"/><path class="a8db2699-5431-427b-809b-b68db5ba2f56" d="M107.97644,66.10207a5.70942,5.70942,0,0,0-5.70966-5.70943H101.873a5.70949,5.70949,0,0,0,0,11.419h.39376A5.7096,5.7096,0,0,0,107.97644,66.10207Z" transform="translate(-14.71064 -43.06725)"/><path class="a8db2699-5431-427b-809b-b68db5ba2f56" d="M138.09874,43.06725A122.98667,122.98667,0,0,0,88.86156,53.30493h98.47437A122.98676,122.98676,0,0,0,138.09874,43.06725Z" transform="translate(-14.71064 -43.06725)"/><line class="b39f9600-c208-4df1-8253-8de4acaf7b12" x1="19.83006" y1="118.91475" x2="0.05974" y2="118.91475"/><path class="b1513a58-cb5b-4fa7-b67b-ab26b855b6c8" d="M38.72551,150.5629a5.70949,5.70949,0,0,1,0,11.419H34.54188l-.00118.00011H93.52626a108.014,108.014,0,0,1,1.08938-11.41909Z" transform="translate(-14.71064 -43.06725)"/><path class="a2a4046c-3dc4-45da-b2d8-f06568d515d1" d="M14.71064,168.67583c.06657,3.851.2935,7.66174.70493,11.419h78.8512a108.30065,108.30065,0,0,1-.80991-11.419Z" transform="translate(-14.71064 -43.06725)"/><path class="a8db2699-5431-427b-809b-b68db5ba2f56" d="M69.97867,186.78863a5.70949,5.70949,0,0,0,0,11.419H98.106a106.7329,106.7329,0,0,1-2.79828-11.419Z" transform="translate(-14.71064 -43.06725)"/><path class="f8228a19-042a-4036-87ba-fb29975c7e37" d="M26.86247,192.49806a5.70944,5.70944,0,0,1,5.70942-5.70943H16.34236c.14186.85786.29821,1.71078.45762,2.56263.16248.86776.31329,1.73929.49391,2.60081.23612,1.12709.50793,2.24051.77468,3.35605.19606.82027.37715,1.64656.58935,2.46.03864.14774.08566.292.12477.43947h13.7892A5.70939,5.70939,0,0,1,26.86247,192.49806Z" transform="translate(-14.71064 -43.06725)"/><path class="a8db2699-5431-427b-809b-b68db5ba2f56" d="M38.67508,192.49806a5.70952,5.70952,0,0,0-5.70942-5.70943h-.39377a5.70949,5.70949,0,0,0,0,11.419h.39377A5.70947,5.70947,0,0,0,38.67508,192.49806Z" transform="translate(-14.71064 -43.06725)"/><polygon class="b1513a58-cb5b-4fa7-b67b-ab26b855b6c8" points="77.319 161.834 77.318 161.834 77.319 161.834 77.319 161.834"/><polygon class="b1513a58-cb5b-4fa7-b67b-ab26b855b6c8" points="77.318 173.253 77.319 173.253 77.319 173.253 77.318 173.253"/><path class="b1513a58-cb5b-4fa7-b67b-ab26b855b6c8" d="M92.02921,204.90143a5.66942,5.66942,0,0,1,5.51467,4.305c.03145.12336.06727.24342.09048.36984a5.69591,5.69591,0,0,1-5.60515,6.74415h13.52316a106.67134,106.67134,0,0,1-5.13234-11.419Z" transform="translate(-14.71064 -43.06725)"/><path class="f8228a19-042a-4036-87ba-fb29975c7e37" d="M97.54388,209.20642a5.70981,5.70981,0,0,0-3.29231-3.85632A5.70922,5.70922,0,0,1,97.54388,209.20642Z" transform="translate(-14.71064 -43.06725)"/><path class="f8228a19-042a-4036-87ba-fb29975c7e37" d="M94.25157,215.87174a5.64177,5.64177,0,0,0,3.38279-6.29548,5.64259,5.64259,0,0,1-3.38279,6.29548Z" transform="translate(-14.71064 -43.06725)"/><path class="f8228a19-042a-4036-87ba-fb29975c7e37" d="M86.31966,210.61086a5.70955,5.70955,0,0,1,5.70955-5.70943h-71.254c.2168.66311.44219,1.322.66994,1.98.34051.98393.67936,1.96869,1.0439,2.94143.34617.92349.71589,1.83519,1.08338,2.748.38752.96261.77421,1.92557,1.18506,2.87569.12713.29373.26592.58122.39517.87389H92.02921A5.70958,5.70958,0,0,1,86.31966,210.61086Z" transform="translate(-14.71064 -43.06725)"/><path class="ba305753-2ebd-4f3e-9a6c-8fe31cc926fb" d="M28.96324,224.19564c.09308.17579.1785.35641.2724.53173.69,1.28721,1.41811,2.551,2.152,3.81084.33.56649.642,1.14465.98064,1.70536q1.63672,2.7095,3.40164,5.32969c.00954.0139.02.02721.02946.04124h82.648a107.3933,107.3933,0,0,1-8.345-11.41886Z" transform="translate(-14.71064 -43.06725)"/><path class="b1513a58-cb5b-4fa7-b67b-ab26b855b6c8" d="M89.27288,253.7273a5.70949,5.70949,0,1,1,0-11.419H40.70433q.39006.5005.784.9976,1.53616,1.92993,3.14963,3.796c.46457.5381.92254,1.08185,1.39607,1.61181,1.4597,1.63384,2.954,3.23622,4.49645,4.78888.07305.07341.14115.15152.21432.22481h87.19984l-.00012-.00012Z" transform="translate(-14.71064 -43.06725)"/><path class="b1513a58-cb5b-4fa7-b67b-ab26b855b6c8" d="M83.56333,248.01787a5.70947,5.70947,0,0,0,5.70955,5.70943h48.67163a107.34134,107.34134,0,0,1-13.40851-11.419H89.27288A5.70957,5.70957,0,0,0,83.56333,248.01787Z" transform="translate(-14.71064 -43.06725)"/><path class="badd8544-a6a3-47a8-a5c3-35c8998b8cfd" d="M83.56333,248.01787a5.70947,5.70947,0,0,0,5.70955,5.70943h48.67163a107.34134,107.34134,0,0,1-13.40851-11.419H89.27288A5.70957,5.70957,0,0,0,83.56333,248.01787Z" transform="translate(-14.71064 -43.06725)"/><path class="b1513a58-cb5b-4fa7-b67b-ab26b855b6c8" d="M172.65493,271.8401h7.1088c-1.37169-.26592-2.72994-.567-4.0823-.88508A5.66421,5.66421,0,0,1,172.65493,271.8401Z" transform="translate(-14.71064 -43.06725)"/><path class="b1513a58-cb5b-4fa7-b67b-ab26b855b6c8" d="M137.80749,266.13068a5.70954,5.70954,0,0,1,5.70942-5.70955H99.1168a5.70949,5.70949,0,0,1,0,11.419h44.40011A5.70944,5.70944,0,0,1,137.80749,266.13068Z" transform="translate(-14.71064 -43.06725)"/><path class="b1513a58-cb5b-4fa7-b67b-ab26b855b6c8" d="M93.40726,266.13068a5.70957,5.70957,0,0,1,5.70954-5.70955H58.02667c.29821.2545.58817.51818.88885.77.50546.423,1.01645.83948,1.52886,1.25469q1.404,1.13781,2.84258,2.23379c.51465.3927,1.02741.78752,1.5483,1.17233,1.08585.80213,2.18925,1.58106,3.302,2.34808.394.27158.7801.55376,1.17739.82086q2.1657,1.45611,4.3976,2.81925H99.1168A5.70947,5.70947,0,0,1,93.40726,266.13068Z" transform="translate(-14.71064 -43.06725)"/><path class="a8db2699-5431-427b-809b-b68db5ba2f56" d="M104.82623,266.13068a5.70949,5.70949,0,1,0-5.70943,5.70942A5.70955,5.70955,0,0,0,104.82623,266.13068Z" transform="translate(-14.71064 -43.06725)"/><path class="a8db2699-5431-427b-809b-b68db5ba2f56" d="M148.45166,260.42113h-4.93475a5.70949,5.70949,0,0,0,0,11.419h29.138a5.66421,5.66421,0,0,0,3.0265-.88508A105.74532,105.74532,0,0,1,148.45166,260.42113Z" transform="translate(-14.71064 -43.06725)"/><path class="a8db2699-5431-427b-809b-b68db5ba2f56" d="M89.73285,280.1091a123.7407,123.7407,0,0,0,96.73178,0Z" transform="translate(-14.71064 -43.06725)"/><path class="badd8544-a6a3-47a8-a5c3-35c8998b8cfd" d="M40.25013,156.27257a5.7095,5.7095,0,0,0-5.70943-5.70967H15.71578q-.72761,5.63568-.9454,11.419h19.7715A5.70933,5.70933,0,0,0,40.25013,156.27257Z" transform="translate(-14.71064 -43.06725)"/><path class="b1513a58-cb5b-4fa7-b67b-ab26b855b6c8" d="M44.43494,156.27245a5.7094,5.7094,0,0,0-5.70943-5.70955H34.5407a5.70949,5.70949,0,0,1,.00118,11.419h4.18363A5.70937,5.70937,0,0,0,44.43494,156.27245Z" transform="translate(-14.71064 -43.06725)"/><path class="badd8544-a6a3-47a8-a5c3-35c8998b8cfd" d="M44.43494,156.27245a5.7094,5.7094,0,0,0-5.70943-5.70955H34.5407a5.70949,5.70949,0,0,1,.00118,11.419h4.18363A5.70937,5.70937,0,0,0,44.43494,156.27245Z" transform="translate(-14.71064 -43.06725)"/><path class="a8db2699-5431-427b-809b-b68db5ba2f56" d="M97.73864,210.61086a5.71212,5.71212,0,0,0-.10428-1.0346c-.02321-.12642-.059-.24648-.09048-.36984a5.66942,5.66942,0,0,0-5.51467-4.305h0a5.70949,5.70949,0,1,0,0,11.419h0a5.70467,5.70467,0,0,0,5.70943-5.70955Z" transform="translate(-14.71064 -43.06725)"/><path class="badd8544-a6a3-47a8-a5c3-35c8998b8cfd" d="M51.97709,78.11157c-.16389.15953-.33367.31305-.49662.47353-1.65316,1.62865-3.27216,3.29266-4.832,5.01215-.13537.14928-.26121.30716-.396.45715q-2.13087,2.37212-4.13332,4.85734c-.16507.204-.32259.414-.48637.61892h84.53671a107.25558,107.25558,0,0,1,13.982-11.41909Z" transform="translate(-14.71064 -43.06725)"/><path class="a8db2699-5431-427b-809b-b68db5ba2f56" d="M260.55723,43.461a122.82838,122.82838,0,0,0-61.03177,16.15907c.19688-.00106.39058-.015.58769-.015,52.0483,0,95.385,37.40607,104.801,86.894H258.73334a62.16248,62.16248,0,1,0-15.29,63.99111H216.62251V180.85263h86.57268v86.89386h-29.313v-23.662a106.12064,106.12064,0,0,1-73.76906,29.72441c-.43735,0-.868-.0278-1.304-.03311A123.43651,123.43651,0,1,0,260.55723,43.461Z" transform="translate(-14.71064 -43.06725)"/><path class="a8db2699-5431-427b-809b-b68db5ba2f56" d="M67.53151,342.8326a29.16411,29.16411,0,0,1-1.79935,10.42269,23.8537,23.8537,0,0,1-5.07928,8.166,22.70191,22.70191,0,0,1-7.88333,5.30849,26.583,26.583,0,0,1-10.176,1.88664A26.44858,26.44858,0,0,1,32.435,366.72983a22.7411,22.7411,0,0,1-7.86588-5.30849,23.87085,23.87085,0,0,1-5.07928-8.166,31.09716,31.09716,0,0,1,0-20.84594,24.06922,24.06922,0,0,1,5.07928-8.18294,22.82008,22.82008,0,0,1,7.86588-5.344,26.232,26.232,0,0,1,10.15856-1.90466,26.36517,26.36517,0,0,1,10.176,1.90466,22.78,22.78,0,0,1,7.88333,5.344,24.05182,24.05182,0,0,1,5.07928,8.18294A29.17159,29.17159,0,0,1,67.53151,342.8326Zm-7.01942,0a25.68944,25.68944,0,0,0-1.27-8.35978,17.68286,17.68286,0,0,0-3.59756-6.26082,15.61537,15.61537,0,0,0-5.64358-3.93266,19.157,19.157,0,0,0-7.40745-1.37583,19.0543,19.0543,0,0,0-7.372,1.37583,15.77379,15.77379,0,0,0-5.661,3.93266,17.53057,17.53057,0,0,0-3.61559,6.26082,28.09068,28.09068,0,0,0,0,16.70154,17.54477,17.54477,0,0,0,3.61559,6.24336,15.5792,15.5792,0,0,0,5.661,3.9152,19.27314,19.27314,0,0,0,7.372,1.35781,19.37721,19.37721,0,0,0,7.40745-1.35781,15.42389,15.42389,0,0,0,5.64358-3.9152,17.69753,17.69753,0,0,0,3.59756-6.24336A25.52955,25.52955,0,0,0,60.51209,342.8326Z" transform="translate(-14.71064 -43.06725)"/><path class="a8db2699-5431-427b-809b-b68db5ba2f56" d="M74.12629,380.18635V332.35641h3.73892a1.60041,1.60041,0,0,1,1.69291,1.30544l.52938,4.23226a19.07555,19.07555,0,0,1,5.2381-4.47949,13.37929,13.37929,0,0,1,6.78964-1.69291,12.89658,12.89658,0,0,1,5.57319,1.18154,11.50524,11.50524,0,0,1,4.26831,3.49169,16.76213,16.76213,0,0,1,2.71563,5.732,29.40752,29.40752,0,0,1,.95233,7.86587,24.64661,24.64661,0,0,1-1.05821,7.35451,17.90134,17.90134,0,0,1-3.03326,5.89026,14.167,14.167,0,0,1-4.85007,3.91519,14.347,14.347,0,0,1-6.47257,1.42878,13.32244,13.32244,0,0,1-5.66105-1.09369,12.73981,12.73981,0,0,1-4.1444-3.10366v15.80215Zm15.908-43.38536a10.11223,10.11223,0,0,0-5.37889,1.41075,15.5086,15.5086,0,0,0-4.25028,3.9856V359.4812a10.0932,10.0932,0,0,0,3.79186,3.28049,10.85656,10.85656,0,0,0,4.60283.95233,9.00646,9.00646,0,0,0,7.65412-3.56265q2.68044-3.56236,2.68072-10.15856a25.367,25.367,0,0,0-.61725-5.99613,11.72769,11.72769,0,0,0-1.78132-4.10949,6.93158,6.93158,0,0,0-2.857-2.34562A9.50331,9.50331,0,0,0,90.03431,336.801Z" transform="translate(-14.71064 -43.06725)"/><path class="a8db2699-5431-427b-809b-b68db5ba2f56" d="M125.44735,331.79211a15.95863,15.95863,0,0,1,5.92574,1.07566,13.31405,13.31405,0,0,1,4.69125,3.10423,14.15348,14.15348,0,0,1,3.0862,5.00888,19.3524,19.3524,0,0,1,1.11115,6.78964,4.09444,4.09444,0,0,1-.31763,1.97562,1.31774,1.31774,0,0,1-1.199.49334h-23.7739a19.71862,19.71862,0,0,0,.91685,5.89082,12.03741,12.03741,0,0,0,2.32817,4.17989,9.32828,9.32828,0,0,0,3.52717,2.50444,12.11441,12.11441,0,0,0,4.58537.82843,13.45771,13.45771,0,0,0,4.074-.54628,19.3625,19.3625,0,0,0,2.9454-1.1821,22.37945,22.37945,0,0,0,2.06348-1.18154,2.73362,2.73362,0,0,1,1.42878-.54629,1.38283,1.38283,0,0,1,1.199.59922l1.76386,2.29269a11.91449,11.91449,0,0,1-2.78659,2.4515,17.32806,17.32806,0,0,1-3.47479,1.71093,21.99968,21.99968,0,0,1-3.82678,1.00527,23.42015,23.42015,0,0,1-3.9152.33509,18.17088,18.17088,0,0,1-6.82512-1.2525,14.96732,14.96732,0,0,1-5.39691-3.668,16.83216,16.83216,0,0,1-3.54519-5.97867,24.31231,24.31231,0,0,1-1.2694-8.1835,20.82355,20.82355,0,0,1,1.14606-6.98394,16.467,16.467,0,0,1,3.298-5.62612,15.19053,15.19053,0,0,1,5.25555-3.73893A17.25755,17.25755,0,0,1,125.44735,331.79211Zm.1408,4.62085a9.63953,9.63953,0,0,0-7.16022,2.62778,12.36359,12.36359,0,0,0-3.245,7.28355H134.6181a12.72745,12.72745,0,0,0-.59978-4.00305,8.92691,8.92691,0,0,0-1.76386-3.13971,7.899,7.899,0,0,0-2.839-2.04545A9.58066,9.58066,0,0,0,125.58815,336.413Z" transform="translate(-14.71064 -43.06725)"/><path class="a8db2699-5431-427b-809b-b68db5ba2f56" d="M146.50392,368.08764V332.35641h3.73893a1.6004,1.6004,0,0,1,1.6929,1.30544l.49391,3.87972a20.09056,20.09056,0,0,1,5.20318-4.16243,13.53321,13.53321,0,0,1,6.64885-1.587,12.90532,12.90532,0,0,1,5.16713.96978,10.01088,10.01088,0,0,1,3.73893,2.75168,12.16232,12.16232,0,0,1,2.27523,4.2852,18.66809,18.66809,0,0,1,.77605,5.53827v22.7506h-6.27884V345.337a9.61847,9.61847,0,0,0-1.85172-6.2963q-1.85174-2.23947-5.66105-2.23975a10.54915,10.54915,0,0,0-5.20261,1.34036,17.12353,17.12353,0,0,0-4.462,3.633v26.31325Z" transform="translate(-14.71064 -43.06725)"/><path class="a8db2699-5431-427b-809b-b68db5ba2f56" d="M207.49077,363.11424a33.448,33.448,0,0,0,3.75638-.19429,23.77293,23.77293,0,0,0,3.22756-.58176,21.96493,21.96493,0,0,0,2.857-.93488q1.3398-.54655,2.68071-1.25194V349.005H212.182a1.49006,1.49006,0,0,1-1.07623-.388,1.2657,1.2657,0,0,1-.40548-.95233v-3.87972h15.52v19.39971a27.96312,27.96312,0,0,1-3.96814,2.39856,26.98007,26.98007,0,0,1-4.4091,1.71093,31.96864,31.96864,0,0,1-5.02634,1.02273,47.14058,47.14058,0,0,1-5.81986.33509,26.2464,26.2464,0,0,1-10.08816-1.8872,23.2105,23.2105,0,0,1-7.90079-5.29048,24.01026,24.01026,0,0,1-5.1677-8.166,28.67122,28.67122,0,0,1-1.85172-10.47563,29.36694,29.36694,0,0,1,1.81624-10.54659A22.67583,22.67583,0,0,1,197.13791,318.847a29.19076,29.19076,0,0,1,10.70541-1.86918,33.06968,33.06968,0,0,1,5.57318.441,26.1252,26.1252,0,0,1,4.77911,1.2694,22.33286,22.33286,0,0,1,4.074,2.01053,24.94554,24.94554,0,0,1,3.49225,2.66326l-1.94014,3.10423a1.78474,1.78474,0,0,1-1.55211.95232,2.495,2.495,0,0,1-1.23448-.388q-.88193-.49335-1.97506-1.19957a17.04041,17.04041,0,0,0-2.66325-1.35781,21.47346,21.47346,0,0,0-3.70344-1.11115,24.42137,24.42137,0,0,0-5.06183-.45842,20.496,20.496,0,0,0-7.72451,1.39329,16.33908,16.33908,0,0,0-5.89082,3.9856,17.64425,17.64425,0,0,0-3.73892,6.27884,24.665,24.665,0,0,0-1.30488,8.27136,25.05681,25.05681,0,0,0,1.35782,8.55351,18.05661,18.05661,0,0,0,3.82734,6.3667,16.50556,16.50556,0,0,0,5.85533,3.98559A19.68157,19.68157,0,0,0,207.49077,363.11424Z" transform="translate(-14.71064 -43.06725)"/><path class="a8db2699-5431-427b-809b-b68db5ba2f56" d="M242.37443,321.13964a3.99811,3.99811,0,0,1-.37057,1.71093,4.93819,4.93819,0,0,1-.98781,1.41075,4.584,4.584,0,0,1-1.42822.97035,4.295,4.295,0,0,1-1.72838.35255,4.16821,4.16821,0,0,1-1.71093-.35255,4.70736,4.70736,0,0,1-2.38111-2.3811,4.16836,4.16836,0,0,1-.35254-1.71093,4.42057,4.42057,0,0,1,.35254-1.74584,4.52969,4.52969,0,0,1,.97036-1.44624,4.659,4.659,0,0,1,1.41075-.96979,4.16873,4.16873,0,0,1,1.71093-.35311,4.29563,4.29563,0,0,1,1.72838.35311,4.6017,4.6017,0,0,1,1.42822.96979,4.80117,4.80117,0,0,1,.98781,1.44624A4.23854,4.23854,0,0,1,242.37443,321.13964Zm-1.41132,11.21677v35.73123h-6.27828V332.35641Z" transform="translate(-14.71064 -43.06725)"/><path class="a8db2699-5431-427b-809b-b68db5ba2f56" d="M261.104,368.652a8.61223,8.61223,0,0,1-6.5075-2.36309q-2.27579-2.3628-2.27523-6.80766V337.612H248.018a1.40121,1.40121,0,0,1-.95233-.33509,1.29971,1.29971,0,0,1-.388-1.04018v-2.50444l5.85534-.74058,1.44623-11.04049a1.33336,1.33336,0,0,1,.45843-.86448,1.45732,1.45732,0,0,1,.98724-.33509h3.17462v12.31046h10.229V337.612h-10.229v21.44573a4.55856,4.55856,0,0,0,1.09369,3.35089,3.8166,3.8166,0,0,0,2.82151,1.09369,4.98489,4.98489,0,0,0,1.71093-.26469,7.33689,7.33689,0,0,0,1.25194-.58176q.52967-.31764.89995-.58233a1.17529,1.17529,0,0,1,.65216-.26413,1.08255,1.08255,0,0,1,.88193.59922l1.83427,2.99835a11.7,11.7,0,0,1-3.9152,2.38111A13.31037,13.31037,0,0,1,261.104,368.652Z" transform="translate(-14.71064 -43.06725)"/><path class="a8db2699-5431-427b-809b-b68db5ba2f56" d="M322.75985,342.8326a29.16411,29.16411,0,0,1-1.79934,10.42269,23.8537,23.8537,0,0,1-5.07928,8.166,22.70191,22.70191,0,0,1-7.88333,5.30849,28.33957,28.33957,0,0,1-20.33458,0,22.741,22.741,0,0,1-7.86588-5.30849,23.87085,23.87085,0,0,1-5.07928-8.166,31.09716,31.09716,0,0,1,0-20.84594,24.06922,24.06922,0,0,1,5.07928-8.18294,22.82,22.82,0,0,1,7.86588-5.344,28.08938,28.08938,0,0,1,20.33458,0,22.78,22.78,0,0,1,7.88333,5.344,24.05182,24.05182,0,0,1,5.07928,8.18294A29.17159,29.17159,0,0,1,322.75985,342.8326Zm-7.01942,0a25.68945,25.68945,0,0,0-1.27-8.35978,17.68286,17.68286,0,0,0-3.59756-6.26082,15.61532,15.61532,0,0,0-5.64359-3.93266,20.53319,20.53319,0,0,0-14.77941,0,15.7737,15.7737,0,0,0-5.661,3.93266,17.53043,17.53043,0,0,0-3.61559,6.26082,28.09068,28.09068,0,0,0,0,16.70154,17.54462,17.54462,0,0,0,3.61559,6.24336,15.57911,15.57911,0,0,0,5.661,3.9152,20.78755,20.78755,0,0,0,14.77941,0,15.42385,15.42385,0,0,0,5.64359-3.9152,17.69753,17.69753,0,0,0,3.59756-6.24336A25.52956,25.52956,0,0,0,315.74043,342.8326Z" transform="translate(-14.71064 -43.06725)"/><path class="a8db2699-5431-427b-809b-b68db5ba2f56" d="M329.35464,380.18635V332.35641h3.73892a1.60042,1.60042,0,0,1,1.69291,1.30544l.52938,4.23226a19.07555,19.07555,0,0,1,5.2381-4.47949,13.37929,13.37929,0,0,1,6.78964-1.69291,12.89658,12.89658,0,0,1,5.57319,1.18154,11.50524,11.50524,0,0,1,4.26831,3.49169,16.76231,16.76231,0,0,1,2.71563,5.732,29.40752,29.40752,0,0,1,.95233,7.86587,24.64661,24.64661,0,0,1-1.05821,7.35451,17.90134,17.90134,0,0,1-3.03326,5.89026,14.167,14.167,0,0,1-4.85007,3.91519,14.347,14.347,0,0,1-6.47258,1.42878,13.32243,13.32243,0,0,1-5.661-1.09369,12.73974,12.73974,0,0,1-4.14441-3.10366v15.80215Zm15.908-43.38536a10.11223,10.11223,0,0,0-5.37889,1.41075,15.50863,15.50863,0,0,0-4.25029,3.9856V359.4812a10.09335,10.09335,0,0,0,3.79186,3.28049,10.85664,10.85664,0,0,0,4.60284.95233,9.00646,9.00646,0,0,0,7.65412-3.56265q2.68042-3.56236,2.68071-10.15856a25.36706,25.36706,0,0,0-.61724-5.99613,11.72787,11.72787,0,0,0-1.78132-4.10949,6.93158,6.93158,0,0,0-2.857-2.34562A9.50334,9.50334,0,0,0,345.26266,336.801Z" transform="translate(-14.71064 -43.06725)"/><path class="a8db2699-5431-427b-809b-b68db5ba2f56" d="M386.98946,338.24722a1.39218,1.39218,0,0,1-1.30544.77606,2.449,2.449,0,0,1-1.199-.388q-.67074-.38775-1.64053-.86447a15.46522,15.46522,0,0,0-2.31015-.88193,11.04644,11.04644,0,0,0-3.17462-.40549,9.38753,9.38753,0,0,0-2.857.40549A6.8746,6.8746,0,0,0,372.33338,338a4.92473,4.92473,0,0,0-1.37584,1.64053,4.40726,4.40726,0,0,0-.47588,2.028,3.37983,3.37983,0,0,0,.79352,2.29268,6.88444,6.88444,0,0,0,2.099,1.587,18.20883,18.20883,0,0,0,2.96287,1.18211q1.65743.51108,3.40383,1.09312,1.74612.582,3.40383,1.28742a12.368,12.368,0,0,1,2.96287,1.76387,8.06593,8.06593,0,0,1,2.09839,2.59229A7.93423,7.93423,0,0,1,389,357.153a11.68094,11.68094,0,0,1-.88193,4.56792,9.97108,9.97108,0,0,1-2.61032,3.633,12.58493,12.58493,0,0,1-4.23283,2.416,17.38666,17.38666,0,0,1-5.78438.88194,18.0391,18.0391,0,0,1-6.77274-1.217,17.1479,17.1479,0,0,1-5.14968-3.12168l1.48171-2.39856a2.14387,2.14387,0,0,1,.67018-.7051,1.88181,1.88181,0,0,1,1.02273-.24723,2.36687,2.36687,0,0,1,1.34036.4939q.70538.49419,1.71092,1.09369a13.13413,13.13413,0,0,0,2.43349,1.09312,11.06909,11.06909,0,0,0,3.5801.49391,9.828,9.828,0,0,0,3.2101-.47589,6.74318,6.74318,0,0,0,2.29269-1.28741,5.09962,5.09962,0,0,0,1.35782-1.86975,5.80625,5.80625,0,0,0,.441-2.2572,3.74631,3.74631,0,0,0-.79351-2.45151,6.70249,6.70249,0,0,0-2.099-1.658,17.09784,17.09784,0,0,0-2.98032-1.199q-1.676-.51108-3.42129-1.07623-1.74613-.56345-3.42186-1.28742a11.99289,11.99289,0,0,1-2.98032-1.81624,8.22923,8.22923,0,0,1-2.099-2.69817,8.72991,8.72991,0,0,1-.79351-3.89774,9.51031,9.51031,0,0,1,.84645-3.93322,9.64668,9.64668,0,0,1,2.46953-3.31541,12.15136,12.15136,0,0,1,3.98559-2.27523,15.94955,15.94955,0,0,1,5.39691-.84645,17.0733,17.0733,0,0,1,6.33122,1.11114,14.9912,14.9912,0,0,1,4.85007,3.05129Z" transform="translate(-14.71064 -43.06725)"/></svg>