<svg id="a8720415-4396-40b9-8e86-b240fa90ae57" data-name="Layer 1" xmlns="http://www.w3.org/2000/svg" viewBox="0 0 775.48337 187.3525"><defs><style>.b1363d61-64bd-4477-8f78-0e76be0ad4fc{opacity:0.6;}.ba12cc43-9f30-41e1-9120-4cb530a3fd2a{opacity:0.5;}.a2a29e7e-fe9b-42c8-8152-b4113d01d09e{opacity:0.8;}.b2aace91-21af-47ca-a38c-a1dd842a340c{opacity:0.9;}.f97e20f5-301c-436c-8b7f-37c3c4687278{opacity:0.7;}.ab7d65b6-53cb-450a-9b13-7a0ceed6a5e1{fill:#1e1e1e;}</style></defs><path class="b1363d61-64bd-4477-8f78-0e76be0ad4fc" d="M47.06494,145.217a4.32592,4.32592,0,0,1,4.32586-4.32577H23.34763a4.32582,4.32582,0,1,1,0,8.65164H51.3908A4.32588,4.32588,0,0,1,47.06494,145.217Z" transform="translate(-9.51663 -32)"/><path class="ba12cc43-9f30-41e1-9120-4cb530a3fd2a" d="M47.065,104.34554a4.3256,4.3256,0,0,1,4.32488-4.32578H13.02551c-.10525.37216-.21612.74182-.3169,1.11586q-.27436,1.01766-.52588,2.04407-.2895,1.18035-.54767,2.37285c-.15023.69076-.2953,1.38357-.43027,2.08022-.06677.34449-.12239.69272-.18541,1.03855H51.3908A4.32573,4.32573,0,0,1,47.065,104.34554Z" transform="translate(-9.51663 -32)"/><path class="a2a29e7e-fe9b-42c8-8152-b4113d01d09e" d="M51.3908,100.01967l-.00089.00009h.89581a4.32578,4.32578,0,1,1,0,8.65155H73.859a80.69963,80.69963,0,0,1,2.35687-8.65164Z" transform="translate(-9.51663 -32)"/><path class="ba12cc43-9f30-41e1-9120-4cb530a3fd2a" d="M56.61158,104.34554a4.32569,4.32569,0,0,0-4.32586-4.32578h-.89581a4.32578,4.32578,0,0,0,.00089,8.65155h.89492A4.32575,4.32575,0,0,0,56.61158,104.34554Z" transform="translate(-9.51663 -32)"/><path class="a2a29e7e-fe9b-42c8-8152-b4113d01d09e" d="M56.61158,104.34554a4.32569,4.32569,0,0,0-4.32586-4.32578h-.89581a4.32578,4.32578,0,0,0,.00089,8.65155h.89492A4.32575,4.32575,0,0,0,56.61158,104.34554Z" transform="translate(-9.51663 -32)"/><path class="b2aace91-21af-47ca-a38c-a1dd842a340c" d="M47.06494,90.324a4.32582,4.32582,0,0,1,4.32586-4.32586H18.23728a92.87449,92.87449,0,0,0-3.52013,8.65163H51.3908A4.32575,4.32575,0,0,1,47.06494,90.324Z" transform="translate(-9.51663 -32)"/><path class="b1363d61-64bd-4477-8f78-0e76be0ad4fc" d="M66.90407,85.99809a4.32582,4.32582,0,0,1,0,8.65163h11.2963a80.874,80.874,0,0,1,4.19634-8.65163Z" transform="translate(-9.51663 -32)"/><path d="M71.22984,90.324a4.32569,4.32569,0,0,0-4.32577-4.32586H51.3908a4.32582,4.32582,0,1,0,0,8.65163H66.90407A4.32561,4.32561,0,0,0,71.22984,90.324Z" transform="translate(-9.51663 -32)"/><path class="f97e20f5-301c-436c-8b7f-37c3c4687278" d="M61.68329,76.899a4.32573,4.32573,0,0,1,4.32577-4.32578H31.10426a4.32578,4.32578,0,0,1,.0009,8.65155h34.903A4.3256,4.3256,0,0,1,61.68329,76.899Z" transform="translate(-9.51663 -32)"/><path d="M35.43,76.899a4.32573,4.32573,0,0,0-4.32578-4.32578H25.91892a93.515,93.515,0,0,0-5.29809,8.65164H31.10426l.0009-.00009A4.3256,4.3256,0,0,0,35.43,76.899Z" transform="translate(-9.51663 -32)"/><path class="a2a29e7e-fe9b-42c8-8152-b4113d01d09e" d="M79.13573,72.57317a4.32578,4.32578,0,0,1,0,8.65155H66.00817l.00089.00009H85.28749A81.40538,81.40538,0,0,1,91.811,72.57317Z" transform="translate(-9.51663 -32)"/><path class="f97e20f5-301c-436c-8b7f-37c3c4687278" d="M83.4615,76.899a4.32579,4.32579,0,0,0-4.32577-4.32578H66.00906a4.32578,4.32578,0,0,0-.00089,8.65155H79.13573A4.32573,4.32573,0,0,0,83.4615,76.899Z" transform="translate(-9.51663 -32)"/><path class="a2a29e7e-fe9b-42c8-8152-b4113d01d09e" d="M83.4615,76.899a4.32579,4.32579,0,0,0-4.32577-4.32578H66.00906a4.32578,4.32578,0,0,0-.00089,8.65155H79.13573A4.32573,4.32573,0,0,0,83.4615,76.899Z" transform="translate(-9.51663 -32)"/><path class="f97e20f5-301c-436c-8b7f-37c3c4687278" d="M71.22984,49.45244a4.32573,4.32573,0,0,1,4.32578-4.32577H55.22426c-.1356.0807-.27557.15479-.41072.2362-.38886.23424-.7695.48018-1.15469.71987-.803.49981-1.60067,1.00712-2.387,1.53033-.43.2861-.85546.57819-1.28038.87117q-1.11233.76686-2.20083,1.565c-.4109.30111-.82225.60176-1.22806.90929-.77191.58525-1.53087,1.18638-2.28376,1.79475-.32958.26637-.665.52588-.99088.79654-.08954.07436-.17461.15381-.26388.22853h32.5316A4.32587,4.32587,0,0,1,71.22984,49.45244Z" transform="translate(-9.51663 -32)"/><path class="ba12cc43-9f30-41e1-9120-4cb530a3fd2a" d="M75.854,45.12667a4.32582,4.32582,0,1,1,0,8.65164h39.58417a80.06213,80.06213,0,0,1,27.81518-8.65164Z" transform="translate(-9.51663 -32)"/><path d="M80.1799,49.45244a4.32577,4.32577,0,0,0-4.326-4.32577h-.29833a4.32582,4.32582,0,0,0,0,8.65164H75.854A4.3259,4.3259,0,0,0,80.1799,49.45244Z" transform="translate(-9.51663 -32)"/><path d="M103.00221,32a93.18146,93.18146,0,0,0-37.30479,7.75663H140.307A93.18177,93.18177,0,0,0,103.00221,32Z" transform="translate(-9.51663 -32)"/><path class="b1363d61-64bd-4477-8f78-0e76be0ad4fc" d="M24.541,113.44459a4.32587,4.32587,0,0,1,0,8.65173H72.1569a81.83554,81.83554,0,0,1,.82537-8.65173Z" transform="translate(-9.51663 -32)"/><path class="ab7d65b6-53cb-450a-9b13-7a0ceed6a5e1" d="M28.86675,117.77054a4.32588,4.32588,0,0,0-4.32578-4.32595H10.27818c-.0599.46357-.12381.9258-.17684,1.39152-.07364.64719-.14515,1.29519-.20549,1.946-.08133.87644-.1439,1.758-.20086,2.64128-.04151.64416-.08605,1.28752-.11453,1.93561-.01071.24459-.00973.49213-.01857.73727H24.541A4.32585,4.32585,0,0,0,28.86675,117.77054Z" transform="translate(-9.51663 -32)"/><path class="a2a29e7e-fe9b-42c8-8152-b4113d01d09e" d="M9.51663,127.16793c.05044,2.91774.22237,5.805.5341,8.65164H72.718a82.05,82.05,0,0,1-.61363-8.65164Z" transform="translate(-9.51663 -32)"/><path class="a2a29e7e-fe9b-42c8-8152-b4113d01d09e" d="M51.3908,140.89118a4.32582,4.32582,0,1,0,0,8.65164h24.236a80.86883,80.86883,0,0,1-2.12012-8.65164Z" transform="translate(-9.51663 -32)"/><path class="ba12cc43-9f30-41e1-9120-4cb530a3fd2a" d="M18.72352,145.217a4.32579,4.32579,0,0,1,4.32578-4.32577H10.75291c.1073.64871.22558,1.29368.3461,1.93784.12328.65871.23781,1.32019.37484,1.97408.17871.8527.3843,1.6953.586,2.53925.149.62336.28664,1.25127.448,1.86937.029.11141.06454.22.094.3311H23.0493A4.32575,4.32575,0,0,1,18.72352,145.217Z" transform="translate(-9.51663 -32)"/><path class="f97e20f5-301c-436c-8b7f-37c3c4687278" d="M27.67349,145.217a4.32592,4.32592,0,0,0-4.32586-4.32577H23.0493a4.32582,4.32582,0,0,0,0,8.65164h.29833A4.32588,4.32588,0,0,0,27.67349,145.217Z" transform="translate(-9.51663 -32)"/><polygon class="ba12cc43-9f30-41e1-9120-4cb530a3fd2a" points="58.581 131.266 58.581 131.266 58.581 131.266 58.581 131.266"/><path class="ba12cc43-9f30-41e1-9120-4cb530a3fd2a" d="M68.09741,154.61443a4.32582,4.32582,0,1,1,0,8.65164H81.26853A80.8224,80.8224,0,0,1,77.38,154.61443Z" transform="translate(-9.51663 -32)"/><polygon class="ba12cc43-9f30-41e1-9120-4cb530a3fd2a" points="58.581 122.614 58.581 122.614 58.581 122.614 58.581 122.614"/><path class="f97e20f5-301c-436c-8b7f-37c3c4687278" d="M69.78119,162.92613a4.33373,4.33373,0,0,0,2.55415-3.114A4.33393,4.33393,0,0,1,69.78119,162.92613Z" transform="translate(-9.51663 -32)"/><path class="f97e20f5-301c-436c-8b7f-37c3c4687278" d="M63.77155,158.94029a4.32588,4.32588,0,0,1,4.32586-4.32586H14.11146c.16426.5024.335,1.00159.50758,1.50016.258.74548.51464,1.49159.79092,2.22859.26227.69968.5424,1.39044.82083,2.082.2936.72932.58658,1.45891.89786,2.17877.09632.22255.20148.44036.29941.66211H68.09741A4.32586,4.32586,0,0,1,63.77155,158.94029Z" transform="translate(-9.51663 -32)"/><path class="f97e20f5-301c-436c-8b7f-37c3c4687278" d="M72.33534,158.0685a4.33372,4.33372,0,0,0-2.55415-3.11414A4.33409,4.33409,0,0,1,72.33534,158.0685Z" transform="translate(-9.51663 -32)"/><path class="f97e20f5-301c-436c-8b7f-37c3c4687278" d="M72.33534,159.81209a4.36574,4.36574,0,0,0,0-1.74359,4.37012,4.37012,0,0,1,0,1.74359Z" transform="translate(-9.51663 -32)"/><path class="a2a29e7e-fe9b-42c8-8152-b4113d01d09e" d="M20.31518,169.23278c.07025.13274.13462.26905.20558.40135.52339.9766,1.07578,1.93516,1.63255,2.891.24959.42849.48553.86581.74173,1.28993q1.24008,2.05286,2.57727,4.03806l.02232.03124h65.5439a81.3652,81.3652,0,0,1-6.32262-8.65154Z" transform="translate(-9.51663 -32)"/><path class="b1363d61-64bd-4477-8f78-0e76be0ad4fc" d="M66.00906,191.60758a4.32582,4.32582,0,0,1,0-8.65164H29.21088q.29472.37814.59238.75387,1.16577,1.46449,2.39,2.88052c.35091.40644.697.81716,1.05471,1.21753,1.10639,1.23833,2.23885,2.45292,3.40791,3.62975.05526.05561.10686.11462.1622.17005h68.99261l-.00009-.00008Z" transform="translate(-9.51663 -32)"/><path class="b1363d61-64bd-4477-8f78-0e76be0ad4fc" d="M61.68329,187.2818a4.32579,4.32579,0,0,0,4.32577,4.32578h39.80153a81.328,81.328,0,0,1-10.159-8.65164H66.00906A4.32586,4.32586,0,0,0,61.68329,187.2818Z" transform="translate(-9.51663 -32)"/><path class="b2aace91-21af-47ca-a38c-a1dd842a340c" d="M61.68329,187.2818a4.32579,4.32579,0,0,0,4.32577,4.32578h39.80153a81.328,81.328,0,0,1-10.159-8.65164H66.00906A4.32586,4.32586,0,0,0,61.68329,187.2818Z" transform="translate(-9.51663 -32)"/><path class="ba12cc43-9f30-41e1-9120-4cb530a3fd2a" d="M121.94633,201.00505a4.32581,4.32581,0,0,1-4.32587,4.32578h19.87466a80.0153,80.0153,0,0,1-15.58664-4.70133C121.91946,200.75528,121.94633,200.87642,121.94633,201.00505Z" transform="translate(-9.51663 -32)"/><path class="ba12cc43-9f30-41e1-9120-4cb530a3fd2a" d="M91.21814,201.00505a4.32579,4.32579,0,0,1,4.32577-4.32577h18.22765l-.00018-.00009H42.33523c.22584.19273.44536.39242.673.583.3835.3211.77137.637,1.16013.952q1.06239.861,2.15093,1.6903c.39037.29807.77949.59747,1.17477.88947.82252.60765,1.65852,1.19781,2.50149,1.77886.29851.20576.591.41956.89206.62193q1.64084,1.10322,3.33186,2.136h19.2479a4.32578,4.32578,0,1,1,4.32586-4.32578,4.32579,4.32579,0,0,1-4.32586,4.32578H95.54391A4.32579,4.32579,0,0,1,91.21814,201.00505Z" transform="translate(-9.51663 -32)"/><path class="ba12cc43-9f30-41e1-9120-4cb530a3fd2a" d="M77.79322,201.00505a4.32582,4.32582,0,1,0-4.32586,4.32578A4.3258,4.3258,0,0,0,77.79322,201.00505Z" transform="translate(-9.51663 -32)"/><path class="b2aace91-21af-47ca-a38c-a1dd842a340c" d="M77.79322,201.00505a4.32582,4.32582,0,1,0-4.32586,4.32578A4.3258,4.3258,0,0,0,77.79322,201.00505Z" transform="translate(-9.51663 -32)"/><path class="ba12cc43-9f30-41e1-9120-4cb530a3fd2a" d="M121.94633,201.00505c0-.12863-.02687-.24977-.03785-.37555a80.365,80.365,0,0,1-8.13692-3.95022H95.54391a4.32578,4.32578,0,0,0,0,8.65155h22.07655A4.32581,4.32581,0,0,0,121.94633,201.00505Z" transform="translate(-9.51663 -32)"/><path class="b2aace91-21af-47ca-a38c-a1dd842a340c" d="M121.94633,201.00505c0-.12863-.02687-.24977-.03785-.37555a80.365,80.365,0,0,1-8.13692-3.95022H95.54391a4.32578,4.32578,0,0,0,0,8.65155h22.07655A4.32581,4.32581,0,0,0,121.94633,201.00505Z" transform="translate(-9.51663 -32)"/><path d="M66.35757,211.59587a93.75269,93.75269,0,0,0,73.28928,0Z" transform="translate(-9.51663 -32)"/><path d="M72.33534,159.81209a4.32386,4.32386,0,0,0-4.23793-5.19766h0a4.32582,4.32582,0,1,0,0,8.65164h0a4.32259,4.32259,0,0,0,4.23793-3.454Z" transform="translate(-9.51663 -32)"/><path class="b2aace91-21af-47ca-a38c-a1dd842a340c" d="M37.75173,58.5515c-.12381.1206-.25218.23647-.37528.35778-1.25289,1.23432-2.47979,2.49533-3.662,3.79847-.10248.113-.19773.23245-.29967.346q-1.61514,1.79791-3.133,3.68179c-.1248.15408-.24379.3128-.36752.46768H96.88919a81.2687,81.2687,0,0,1,10.59349-8.65172Z" transform="translate(-9.51663 -32)"/><path d="M198.7086,32.29834a93.06146,93.06146,0,0,0-46.241,12.243c.14917-.00081.29593-.01134.44528-.01134a80.94745,80.94745,0,0,1,79.40292,65.83563h-34.989a47.0977,47.0977,0,1,0-11.58455,48.48316h-20.321v-22.455h65.59228v65.83554H208.80443V184.30166a80.4032,80.4032,0,0,1-55.89156,22.52084c-.33137,0-.65765-.02106-.98812-.02508A93.52229,93.52229,0,1,0,198.7086,32.29834Z" transform="translate(-9.51663 -32)"/><path d="M374.79439,129.13392a37.21433,37.21433,0,0,1-2.296,13.29974,30.43813,30.43813,0,0,1-6.48134,10.42017,28.96827,28.96827,0,0,1-10.05943,6.77383,36.16235,36.16235,0,0,1-25.94767,0,29.01814,29.01814,0,0,1-10.03714-6.77383,30.45986,30.45986,0,0,1-6.48135-10.42017,39.68113,39.68113,0,0,1,0-26.60019,30.7132,30.7132,0,0,1,6.48135-10.44173,29.11932,29.11932,0,0,1,10.03714-6.81911,35.843,35.843,0,0,1,25.94767,0,29.06829,29.06829,0,0,1,10.05943,6.81911,30.69115,30.69115,0,0,1,6.48134,10.44173A37.22389,37.22389,0,0,1,374.79439,129.13392Zm-8.957,0a32.78077,32.78077,0,0,0-1.62052-10.66738,22.56384,22.56384,0,0,0-4.59063-7.989,19.9257,19.9257,0,0,0-7.20141-5.01821,26.201,26.201,0,0,0-18.85908,0,20.128,20.128,0,0,0-7.2237,5.01821,22.3696,22.3696,0,0,0-4.61362,7.989,35.84462,35.84462,0,0,0,0,21.31177,22.38766,22.38766,0,0,0,4.61362,7.96676,19.87979,19.87979,0,0,0,7.2237,4.99594,26.52564,26.52564,0,0,0,18.85908,0,19.68152,19.68152,0,0,0,7.20141-4.99594,22.58251,22.58251,0,0,0,4.59063-7.96676A32.57667,32.57667,0,0,0,365.83736,129.13392Z" transform="translate(-9.51663 -32)"/><path d="M383.20958,176.79867V115.76592h4.771a2.04219,2.04219,0,0,1,2.16021,1.66579l.67551,5.40052a24.34108,24.34108,0,0,1,6.684-5.716,17.07258,17.07258,0,0,1,8.66384-2.16021,16.45642,16.45642,0,0,1,7.11159,1.50769,14.68109,14.68109,0,0,1,5.44652,4.45552,21.38926,21.38926,0,0,1,3.46524,7.31425,37.52477,37.52477,0,0,1,1.21521,10.03714,31.45,31.45,0,0,1-1.35031,9.38462,22.84265,22.84265,0,0,1-3.87056,7.51618,18.0776,18.0776,0,0,1-6.18886,4.99594,18.30733,18.30733,0,0,1-8.25925,1.82317,16.99972,16.99972,0,0,1-7.22369-1.39559,16.25639,16.25639,0,0,1-5.28842-3.96038v20.16411Zm20.29922-55.3613a12.90361,12.90361,0,0,0-6.86366,1.80017,19.78956,19.78956,0,0,0-5.42352,5.08577v22.05483a12.87939,12.87939,0,0,0,4.83855,4.186,13.85346,13.85346,0,0,0,5.87339,1.21521q6.34589,0,9.76694-4.54607,3.42033-4.54572,3.42069-12.9627a32.36937,32.36937,0,0,0-.78762-7.65128,14.965,14.965,0,0,0-2.273-5.24387,8.84493,8.84493,0,0,0-3.64562-2.9931A12.12675,12.12675,0,0,0,403.5088,121.43737Z" transform="translate(-9.51663 -32)"/><path d="M448.69714,115.04585a20.36371,20.36371,0,0,1,7.56146,1.37259,16.989,16.989,0,0,1,5.98621,3.9611,18.06058,18.06058,0,0,1,3.93811,6.39152,24.6946,24.6946,0,0,1,1.41786,8.66383,5.22469,5.22469,0,0,1-.40531,2.521,1.6815,1.6815,0,0,1-1.53.62952H435.32914a25.16153,25.16153,0,0,0,1.16993,7.5169,15.36032,15.36032,0,0,0,2.97083,5.33369,11.90331,11.90331,0,0,0,4.5008,3.19576,15.45849,15.45849,0,0,0,5.8511,1.05711,17.17283,17.17283,0,0,0,5.19859-.69707,24.70906,24.70906,0,0,0,3.75845-1.50841,28.55216,28.55216,0,0,0,2.63307-1.5077,3.4883,3.4883,0,0,1,1.82317-.69707,1.76451,1.76451,0,0,1,1.53.76463l2.25076,2.92555A15.20432,15.20432,0,0,1,463.46,158.097a22.11177,22.11177,0,0,1-4.434,2.1832,28.07122,28.07122,0,0,1-4.88311,1.28276,29.885,29.885,0,0,1-4.99593.42759,23.18666,23.18666,0,0,1-8.70911-1.59824,19.09907,19.09907,0,0,1-6.88666-4.68045,21.47878,21.47878,0,0,1-4.52379-7.629,31.02349,31.02349,0,0,1-1.6198-10.44245,26.57155,26.57155,0,0,1,1.46242-8.91177,21.01252,21.01252,0,0,1,4.20831-7.17914,19.38392,19.38392,0,0,1,6.70628-4.771A22.02124,22.02124,0,0,1,448.69714,115.04585Zm.17966,5.89638q-5.80582,0-9.13669,3.35314a15.7764,15.7764,0,0,0-4.14077,9.29408h24.8a16.24071,16.24071,0,0,0-.76534-5.108,11.391,11.391,0,0,0-2.25076-4.00637,10.07927,10.07927,0,0,0-3.62263-2.61008A12.2253,12.2253,0,0,0,448.8768,120.94223Z" transform="translate(-9.51663 -32)"/><path d="M475.5661,161.36029V115.76592h4.771a2.04219,2.04219,0,0,1,2.16021,1.66579l.63025,4.95066A25.637,25.637,0,0,1,489.767,117.071a17.269,17.269,0,0,1,8.48418-2.0251,16.46763,16.46763,0,0,1,6.59346,1.23748,12.77421,12.77421,0,0,1,4.771,3.51124,15.51945,15.51945,0,0,1,2.90327,5.46808,23.82069,23.82069,0,0,1,.99028,7.067v29.03061h-8.012V132.32968q0-5.17631-2.36286-8.03431-2.36286-2.85765-7.2237-2.858a13.46107,13.46107,0,0,0-6.63872,1.71034,21.85034,21.85034,0,0,0-5.69373,4.6359v33.57668Z" transform="translate(-9.51663 -32)"/><path d="M553.38756,155.014a42.67963,42.67963,0,0,0,4.79328-.24793,30.33349,30.33349,0,0,0,4.11848-.74234,28.03,28.03,0,0,0,3.64562-1.19293q1.70964-.69744,3.4207-1.59752V137.01014h-9.99187a1.90136,1.90136,0,0,1-1.37331-.49514,1.61507,1.61507,0,0,1-.51742-1.21521v-4.95066h19.80408v24.75474a35.68233,35.68233,0,0,1-5.06348,3.06066,34.42831,34.42831,0,0,1-5.62618,2.1832,40.794,40.794,0,0,1-6.41379,1.305,60.151,60.151,0,0,1-7.42636.42759,33.49127,33.49127,0,0,1-12.87286-2.40814,29.61735,29.61735,0,0,1-10.0817-6.75084,30.63809,30.63809,0,0,1-6.59417-10.42017,36.58536,36.58536,0,0,1-2.36287-13.36729,37.47326,37.47326,0,0,1,2.31759-13.45783,28.93508,28.93508,0,0,1,17.01363-17.14873,37.24822,37.24822,0,0,1,13.66049-2.38515,42.19914,42.19914,0,0,1,7.11159.56269,33.33689,33.33689,0,0,1,6.09832,1.6198,28.498,28.498,0,0,1,5.19859,2.56552,31.83156,31.83156,0,0,1,4.45624,3.39842l-2.47569,3.9611a2.2774,2.2774,0,0,1-1.98055,1.21521,3.18377,3.18377,0,0,1-1.57525-.49514q-1.12537-.62952-2.52024-1.53069a21.74459,21.74459,0,0,0-3.39842-1.73262,27.39891,27.39891,0,0,0-4.72573-1.41786,31.16215,31.16215,0,0,0-6.45907-.585,26.1533,26.1533,0,0,0-9.85676,1.7779,20.84925,20.84925,0,0,0-7.5169,5.08576,22.51476,22.51476,0,0,0-4.771,8.012,31.47358,31.47358,0,0,0-1.66507,10.55456,31.97358,31.97358,0,0,0,1.73262,10.9146,23.04082,23.04082,0,0,0,4.88383,8.12414,21.06161,21.06161,0,0,0,7.47162,5.08576A25.11442,25.11442,0,0,0,553.38756,155.014Z" transform="translate(-9.51663 -32)"/><path d="M597.90038,101.45291a5.10173,5.10173,0,0,1-.47286,2.18321,6.30124,6.30124,0,0,1-1.26048,1.80017,5.84941,5.84941,0,0,1-1.82245,1.23821,5.48078,5.48078,0,0,1-2.20548.44986,5.31883,5.31883,0,0,1-2.18321-.44986,6.00668,6.00668,0,0,1-3.03838-3.03838,5.3189,5.3189,0,0,1-.44986-2.18321,5.64075,5.64075,0,0,1,.44986-2.22776,5.78012,5.78012,0,0,1,1.2382-1.84545,5.94535,5.94535,0,0,1,1.80018-1.23749,5.31946,5.31946,0,0,1,2.18321-.45058,5.48149,5.48149,0,0,1,2.20548.45058A5.87194,5.87194,0,0,1,596.167,97.3797a6.12646,6.12646,0,0,1,1.26048,1.84545A5.40856,5.40856,0,0,1,597.90038,101.45291Zm-1.80089,14.313v45.59437h-8.01132V115.76592Z" transform="translate(-9.51663 -32)"/><path d="M621.8,162.08036q-5.40052,0-8.3038-3.01538-2.904-3.015-2.90328-8.68684V122.4722H605.1018a1.78805,1.78805,0,0,1-1.21521-.42759,1.65849,1.65849,0,0,1-.49513-1.32731v-3.19576l7.47162-.945,1.84545-14.08808a1.70135,1.70135,0,0,1,.585-1.1031,1.85962,1.85962,0,0,1,1.25976-.42759h4.05093v15.70859h13.05253v5.80584H618.60419v27.36553a5.81693,5.81693,0,0,0,1.39559,4.27587,4.87009,4.87009,0,0,0,3.60035,1.39558,6.36052,6.36052,0,0,0,2.1832-.33776,9.361,9.361,0,0,0,1.59752-.74234q.67589-.40531,1.14838-.74307a1.49967,1.49967,0,0,1,.83217-.337,1.38136,1.38136,0,0,1,1.12538.76463l2.34059,3.826a14.9296,14.9296,0,0,1-4.99593,3.03838A16.9845,16.9845,0,0,1,621.8,162.08036Z" transform="translate(-9.51663 -32)"/><path d="M700.47514,129.13392a37.21433,37.21433,0,0,1-2.296,13.29974,30.438,30.438,0,0,1-6.48135,10.42017,28.96814,28.96814,0,0,1-10.05942,6.77383,36.16235,36.16235,0,0,1-25.94767,0,29.018,29.018,0,0,1-10.03714-6.77383,30.45986,30.45986,0,0,1-6.48135-10.42017,39.68113,39.68113,0,0,1,0-26.60019,30.7132,30.7132,0,0,1,6.48135-10.44173,29.11922,29.11922,0,0,1,10.03714-6.81911,35.843,35.843,0,0,1,25.94767,0,29.06816,29.06816,0,0,1,10.05942,6.81911,30.691,30.691,0,0,1,6.48135,10.44173A37.22389,37.22389,0,0,1,700.47514,129.13392Zm-8.957,0a32.781,32.781,0,0,0-1.62051-10.66738,22.56414,22.56414,0,0,0-4.59063-7.989,19.92565,19.92565,0,0,0-7.20142-5.01821,26.201,26.201,0,0,0-18.85908,0,20.12783,20.12783,0,0,0-7.22369,5.01821,22.36945,22.36945,0,0,0-4.61362,7.989,35.84462,35.84462,0,0,0,0,21.31177,22.38751,22.38751,0,0,0,4.61362,7.96676,19.87966,19.87966,0,0,0,7.22369,4.99594,26.52564,26.52564,0,0,0,18.85908,0,19.68147,19.68147,0,0,0,7.20142-4.99594,22.58281,22.58281,0,0,0,4.59063-7.96676A32.57694,32.57694,0,0,0,691.5181,129.13392Z" transform="translate(-9.51663 -32)"/><path d="M708.89033,176.79867V115.76592h4.771a2.04219,2.04219,0,0,1,2.16021,1.66579l.67552,5.40052a24.34108,24.34108,0,0,1,6.684-5.716,17.07256,17.07256,0,0,1,8.66384-2.16021,16.45634,16.45634,0,0,1,7.11158,1.50769,14.681,14.681,0,0,1,5.44652,4.45552,21.38908,21.38908,0,0,1,3.46525,7.31425,37.52477,37.52477,0,0,1,1.21521,10.03714,31.4503,31.4503,0,0,1-1.35031,9.38462,22.84284,22.84284,0,0,1-3.87056,7.51618,18.07769,18.07769,0,0,1-6.18886,4.99594,18.30733,18.30733,0,0,1-8.25925,1.82317,16.9998,16.9998,0,0,1-7.2237-1.39559,16.25635,16.25635,0,0,1-5.28841-3.96038v20.16411Zm20.29922-55.3613a12.90359,12.90359,0,0,0-6.86366,1.80017,19.78956,19.78956,0,0,0-5.42352,5.08577v22.05483a12.87939,12.87939,0,0,0,4.83855,4.186,13.85341,13.85341,0,0,0,5.87338,1.21521q6.3459,0,9.76694-4.54607,3.42033-4.54572,3.42069-12.9627a32.36937,32.36937,0,0,0-.78762-7.65128,14.96514,14.96514,0,0,0-2.273-5.24387,8.845,8.845,0,0,0-3.64563-2.9931A12.1267,12.1267,0,0,0,729.18955,121.43737Z" transform="translate(-9.51663 -32)"/><path d="M782.43448,123.28282a1.77647,1.77647,0,0,1-1.66579.99027,3.125,3.125,0,0,1-1.53-.49514q-.85588-.49478-2.09338-1.1031a19.73548,19.73548,0,0,0-2.94783-1.12538,14.09635,14.09635,0,0,0-4.05093-.51741,11.97923,11.97923,0,0,0-3.64562.51741,8.77259,8.77259,0,0,0-2.76818,1.41787,6.28392,6.28392,0,0,0-1.75562,2.09337,5.62372,5.62372,0,0,0-.60724,2.5878,4.31289,4.31289,0,0,0,1.01255,2.92555,8.78513,8.78513,0,0,0,2.67835,2.02511,23.23582,23.23582,0,0,0,3.78072,1.50841q2.11494.65215,4.34342,1.39487,2.22812.74269,4.34342,1.64279a15.78179,15.78179,0,0,1,3.78072,2.25076,10.29255,10.29255,0,0,1,2.67763,3.30786A10.12454,10.12454,0,0,1,785,147.40732a14.90515,14.90515,0,0,1-1.12538,5.82883,12.72336,12.72336,0,0,1-3.33086,4.6359,16.059,16.059,0,0,1-5.40124,3.08293,22.18633,22.18633,0,0,1-7.38108,1.12538,23.01869,23.01869,0,0,1-8.64228-1.553A21.88156,21.88156,0,0,1,752.548,156.544l1.89073-3.06065a2.73548,2.73548,0,0,1,.85517-.89973,2.40128,2.40128,0,0,1,1.305-.31548,3.02014,3.02014,0,0,1,1.71034.63024q.90009.6306,2.18321,1.39558a16.75912,16.75912,0,0,0,3.10521,1.39487,14.1246,14.1246,0,0,0,4.56835.63024,12.54114,12.54114,0,0,0,4.09621-.60724,8.60455,8.60455,0,0,0,2.92555-1.6428,6.50716,6.50716,0,0,0,1.73262-2.38586,7.40878,7.40878,0,0,0,.56269-2.88028,4.78043,4.78043,0,0,0-1.01255-3.12821,8.55233,8.55233,0,0,0-2.67835-2.11565,21.81677,21.81677,0,0,0-3.803-1.53q-2.13865-.65215-4.36569-1.37331-2.22813-.719-4.36642-1.64279a15.30391,15.30391,0,0,1-3.803-2.31759,10.50064,10.50064,0,0,1-2.67834-3.443,11.13961,11.13961,0,0,1-1.01256-4.97366,12.13545,12.13545,0,0,1,1.08011-5.01893,12.30955,12.30955,0,0,1,3.1512-4.23059,15.50581,15.50581,0,0,1,5.08577-2.90328,20.35212,20.35212,0,0,1,6.88665-1.0801,21.786,21.786,0,0,1,8.07887,1.41786,19.12924,19.12924,0,0,1,6.18887,3.89355Z" transform="translate(-9.51663 -32)"/></svg>