<svg id="a4cfa55a-1e36-44ee-b313-0054dab76ee7" data-name="Layer 1" xmlns="http://www.w3.org/2000/svg" viewBox="0 0 389.11397 257.85838"><defs><style>.a5c367c7-fb7b-4f65-9132-0e3cb3ed5db2{opacity:0.6;}.e552152e-84fe-4e9d-ae46-1e7474b4d4b2{opacity:0.5;}.a61e5132-20bb-4452-8402-4c40153c0ad2{opacity:0.8;}.bff41b18-e32c-41c1-a889-04dbd3cf5983{opacity:0.9;}.be83f4b9-ce98-47d9-8107-3acf564acff3{opacity:0.7;}.bdda3495-18b0-496b-b06a-1e3744a45b31{fill:#1e1e1e;}</style></defs><path class="a5c367c7-fb7b-4f65-9132-0e3cb3ed5db2" d="M57.03667,225.87313a5.95388,5.95388,0,0,1,5.9538-5.95368H24.39389a5.95374,5.95374,0,1,1,0,11.90748H62.99047A5.95383,5.95383,0,0,1,57.03667,225.87313Z" transform="translate(-5.35791 -70.04953)"/><path class="e552152e-84fe-4e9d-ae46-1e7474b4d4b2" d="M57.03679,169.62068a5.95345,5.95345,0,0,1,5.95246-5.95369h-52.802c-.14485.51222-.29745,1.021-.43616,1.53579q-.37763,1.40064-.72378,2.81331-.39844,1.62455-.75377,3.26581c-.20678.95072-.40643,1.90425-.5922,2.86307-.0919.47413-.16844.95342-.25518,1.42939H62.99047A5.95362,5.95362,0,0,1,57.03679,169.62068Z" transform="translate(-5.35791 -70.04953)"/><path class="a61e5132-20bb-4452-8402-4c40153c0ad2" d="M62.99047,163.66687l-.00122.00012h1.23292a5.95369,5.95369,0,1,1,0,11.90737H93.914a111.06976,111.06976,0,0,1,3.24382-11.90749Z" transform="translate(-5.35791 -70.04953)"/><path class="e552152e-84fe-4e9d-ae46-1e7474b4d4b2" d="M70.176,169.62068a5.95358,5.95358,0,0,0-5.95381-5.95369H62.98925a5.95369,5.95369,0,0,0,.00122,11.90737h1.2317A5.95365,5.95365,0,0,0,70.176,169.62068Z" transform="translate(-5.35791 -70.04953)"/><path class="a61e5132-20bb-4452-8402-4c40153c0ad2" d="M70.176,169.62068a5.95358,5.95358,0,0,0-5.95381-5.95369H62.98925a5.95369,5.95369,0,0,0,.00122,11.90737h1.2317A5.95365,5.95365,0,0,0,70.176,169.62068Z" transform="translate(-5.35791 -70.04953)"/><path class="bff41b18-e32c-41c1-a889-04dbd3cf5983" d="M57.03667,150.32238a5.95375,5.95375,0,0,1,5.9538-5.9538H17.36037a127.82956,127.82956,0,0,0-4.84485,11.90749h50.475A5.95365,5.95365,0,0,1,57.03667,150.32238Z" transform="translate(-5.35791 -70.04953)"/><path class="a5c367c7-fb7b-4f65-9132-0e3cb3ed5db2" d="M84.3418,144.36858a5.95375,5.95375,0,0,1,0,11.90749H99.88922a111.30851,111.30851,0,0,1,5.77553-11.90749Z" transform="translate(-5.35791 -70.04953)"/><path d="M90.29549,150.32238a5.95358,5.95358,0,0,0-5.95369-5.9538H62.99047a5.95375,5.95375,0,1,0,0,11.90749H84.3418A5.95348,5.95348,0,0,0,90.29549,150.32238Z" transform="translate(-5.35791 -70.04953)"/><path class="be83f4b9-ce98-47d9-8107-3acf564acff3" d="M77.1563,131.84518A5.95362,5.95362,0,0,1,83.11,125.8915H35.06955a5.95368,5.95368,0,0,1,.00123,11.90736h48.038A5.95343,5.95343,0,0,1,77.1563,131.84518Z" transform="translate(-5.35791 -70.04953)"/><path d="M41.02323,131.84518a5.95362,5.95362,0,0,0-5.95368-5.95368H27.93283A128.70545,128.70545,0,0,0,20.64092,137.799H35.06955l.00123-.00013A5.95343,5.95343,0,0,0,41.02323,131.84518Z" transform="translate(-5.35791 -70.04953)"/><path class="a61e5132-20bb-4452-8402-4c40153c0ad2" d="M101.17658,125.8915a5.95368,5.95368,0,0,1,0,11.90736H83.10875l.00123.00013h26.53343a112.04166,112.04166,0,0,1,8.97844-11.90749Z" transform="translate(-5.35791 -70.04953)"/><path class="be83f4b9-ce98-47d9-8107-3acf564acff3" d="M107.13026,131.84518a5.9537,5.9537,0,0,0-5.95368-5.95368H83.11a5.95368,5.95368,0,0,0-.00123,11.90736h18.06783A5.95362,5.95362,0,0,0,107.13026,131.84518Z" transform="translate(-5.35791 -70.04953)"/><path class="a61e5132-20bb-4452-8402-4c40153c0ad2" d="M107.13026,131.84518a5.9537,5.9537,0,0,0-5.95368-5.95368H83.11a5.95368,5.95368,0,0,0-.00123,11.90736h18.06783A5.95362,5.95362,0,0,0,107.13026,131.84518Z" transform="translate(-5.35791 -70.04953)"/><path class="be83f4b9-ce98-47d9-8107-3acf564acff3" d="M90.29549,94.06981a5.95361,5.95361,0,0,1,5.95368-5.95368H68.26657c-.18663.11107-.37928.213-.56529.32509-.53519.3224-1.05908.66088-1.58923.99077-1.10515.68791-2.203,1.38614-3.28535,2.10623-.59183.39378-1.17739.79579-1.76222,1.199q-1.53093,1.05546-3.02906,2.15391c-.56554.41441-1.13169.82822-1.69022,1.25148-1.0624.80549-2.107,1.63284-3.1432,2.47015-.45361.36662-.9152.72379-1.36377,1.09631-.12324.10234-.24032.21169-.36319.31452H96.24917A5.95379,5.95379,0,0,1,90.29549,94.06981Z" transform="translate(-5.35791 -70.04953)"/><path class="e552152e-84fe-4e9d-ae46-1e7474b4d4b2" d="M96.65977,88.11613a5.95374,5.95374,0,1,1,0,11.90748h54.48077a110.1917,110.1917,0,0,1,38.2828-11.90748Z" transform="translate(-5.35791 -70.04953)"/><path d="M102.6137,94.06981a5.95367,5.95367,0,0,0-5.95393-5.95368h-.4106a5.95374,5.95374,0,0,0,0,11.90748h.4106A5.95385,5.95385,0,0,0,102.6137,94.06981Z" transform="translate(-5.35791 -70.04953)"/><path d="M134.02466,70.04953A128.2481,128.2481,0,0,0,82.68107,80.7252H185.36825A128.24853,128.24853,0,0,0,134.02466,70.04953Z" transform="translate(-5.35791 -70.04953)"/><path class="a5c367c7-fb7b-4f65-9132-0e3cb3ed5db2" d="M26.03632,182.144a5.95381,5.95381,0,0,1,0,11.90761H91.57141a112.63647,112.63647,0,0,1,1.136-11.90761Z" transform="translate(-5.35791 -70.04953)"/><path class="bdda3495-18b0-496b-b06a-1e3744a45b31" d="M31.99,188.09788a5.95383,5.95383,0,0,0-5.95368-5.95393H6.406c-.08244.638-.17041,1.27421-.24339,1.91518-.10136.89076-.19978,1.78262-.28283,2.67841-.11193,1.20627-.19806,2.41966-.27644,3.63526-.05713.88658-.11844,1.772-.15764,2.664-.01474.33664-.01339.67734-.02555,1.01472H26.03632A5.95378,5.95378,0,0,0,31.99,188.09788Z" transform="translate(-5.35791 -70.04953)"/><path class="a61e5132-20bb-4452-8402-4c40153c0ad2" d="M5.35791,201.03176c.06941,4.01577.306,7.98952.73508,11.90749H92.34361a112.93284,112.93284,0,0,1-.84456-11.90749Z" transform="translate(-5.35791 -70.04953)"/><path class="a61e5132-20bb-4452-8402-4c40153c0ad2" d="M62.99047,219.91945a5.95374,5.95374,0,1,0,0,11.90748H96.34709a111.30008,111.30008,0,0,1-2.918-11.90748Z" transform="translate(-5.35791 -70.04953)"/><path class="e552152e-84fe-4e9d-ae46-1e7474b4d4b2" d="M18.0296,225.87313a5.95369,5.95369,0,0,1,5.95368-5.95368H7.05943c.14768.89284.31048,1.78052.47634,2.6671.16968.9066.32731,1.817.5159,2.717.246,1.17358.52893,2.33328.8066,3.49483.205.85795.39451,1.72216.61652,2.57286.03993.15334.08883.30274.12938.4557H23.98328A5.95364,5.95364,0,0,1,18.0296,225.87313Z" transform="translate(-5.35791 -70.04953)"/><path class="be83f4b9-ce98-47d9-8107-3acf564acff3" d="M30.34769,225.87313a5.95388,5.95388,0,0,0-5.9538-5.95368h-.41061a5.95374,5.95374,0,0,0,0,11.90748h.41061A5.95383,5.95383,0,0,0,30.34769,225.87313Z" transform="translate(-5.35791 -70.04953)"/><polygon class="e552152e-84fe-4e9d-ae46-1e7474b4d4b2" points="80.626 180.665 80.626 180.665 80.626 180.665 80.626 180.665"/><path class="e552152e-84fe-4e9d-ae46-1e7474b4d4b2" d="M85.98423,238.80713a5.95375,5.95375,0,1,1,0,11.90749H104.112a111.23556,111.23556,0,0,1-5.3519-11.90749Z" transform="translate(-5.35791 -70.04953)"/><polygon class="e552152e-84fe-4e9d-ae46-1e7474b4d4b2" points="80.626 168.758 80.626 168.758 80.626 168.758 80.626 168.758"/><path class="be83f4b9-ce98-47d9-8107-3acf564acff3" d="M88.30167,250.24676a5.96468,5.96468,0,0,0,3.51535-4.28595A5.965,5.965,0,0,1,88.30167,250.24676Z" transform="translate(-5.35791 -70.04953)"/><path class="be83f4b9-ce98-47d9-8107-3acf564acff3" d="M80.03043,244.76094a5.95383,5.95383,0,0,1,5.9538-5.95381H11.6819c.22606.69147.4611,1.37852.69859,2.06471.35508,1.026.70831,2.05291,1.08857,3.06727.361.963.74651,1.91371,1.12972,2.86552.4041,1.00379.80733,2.00795,1.23575,2.99871.13257.3063.27731.60609.41209.91128H85.98423A5.9538,5.9538,0,0,1,80.03043,244.76094Z" transform="translate(-5.35791 -70.04953)"/><path class="be83f4b9-ce98-47d9-8107-3acf564acff3" d="M91.817,243.56106a5.96462,5.96462,0,0,0-3.51535-4.28607A5.96512,5.96512,0,0,1,91.817,243.56106Z" transform="translate(-5.35791 -70.04953)"/><path class="be83f4b9-ce98-47d9-8107-3acf564acff3" d="M91.817,245.96081a6.0087,6.0087,0,0,0,0-2.39975,6.015,6.015,0,0,1,0,2.39975Z" transform="translate(-5.35791 -70.04953)"/><path class="a61e5132-20bb-4452-8402-4c40153c0ad2" d="M20.22024,258.92676c.09669.1827.18528.37031.28295.55239.72035,1.34412,1.48062,2.66342,2.24692,3.97891.34352.58974.66825,1.19165,1.02086,1.77537q1.70676,2.82541,3.54717,5.55769c.01.0145.02089.02838.03072.043h90.20986a111.98767,111.98767,0,0,1-8.702-11.90736Z" transform="translate(-5.35791 -70.04953)"/><path class="a5c367c7-fb7b-4f65-9132-0e3cb3ed5db2" d="M83.11,289.72181a5.95375,5.95375,0,0,1,0-11.90749H32.46363q.40564.52046.81532,1.03758,1.60446,2.01563,3.28941,3.96453c.483.5594.95931,1.12469,1.45162,1.67573,1.52276,1.70435,3.0814,3.376,4.69041,4.99572.07605.07654.14706.15776.22324.234h94.95642l-.00013-.00012Z" transform="translate(-5.35791 -70.04953)"/><path class="a5c367c7-fb7b-4f65-9132-0e3cb3ed5db2" d="M77.1563,283.76813A5.9537,5.9537,0,0,0,83.11,289.72181h54.77994a111.9326,111.9326,0,0,1-13.98214-11.90749H83.11A5.95381,5.95381,0,0,0,77.1563,283.76813Z" transform="translate(-5.35791 -70.04953)"/><path class="bff41b18-e32c-41c1-a889-04dbd3cf5983" d="M77.1563,283.76813A5.9537,5.9537,0,0,0,83.11,289.72181h54.77994a111.9326,111.9326,0,0,1-13.98214-11.90749H83.11A5.95381,5.95381,0,0,0,77.1563,283.76813Z" transform="translate(-5.35791 -70.04953)"/><path class="e552152e-84fe-4e9d-ae46-1e7474b4d4b2" d="M160.098,302.65581a5.95372,5.95372,0,0,1-5.9538,5.95369h27.354a110.12782,110.12782,0,0,1-21.45232-6.47057C160.061,302.31205,160.098,302.47877,160.098,302.65581Z" transform="translate(-5.35791 -70.04953)"/><path class="e552152e-84fe-4e9d-ae46-1e7474b4d4b2" d="M117.80592,302.65581a5.9537,5.9537,0,0,1,5.95368-5.95368h25.08722l-.00025-.00012H50.527c.31085.26526.613.5401.92627.80242.52781.44193,1.06165.87675,1.59672,1.31033q1.46218,1.185,2.96038,2.3264c.53728.41024,1.07283.82232,1.61687,1.22421,1.13206.83632,2.28267,1.64857,3.44286,2.44828.41085.2832.81347.57746,1.22777.856q2.25834,1.51839,4.58573,2.93986H93.375a5.95369,5.95369,0,1,1,5.9538-5.95369,5.9537,5.9537,0,0,1-5.9538,5.95369H123.7596A5.9537,5.9537,0,0,1,117.80592,302.65581Z" transform="translate(-5.35791 -70.04953)"/><path class="e552152e-84fe-4e9d-ae46-1e7474b4d4b2" d="M99.32884,302.65581a5.95374,5.95374,0,1,0-5.9538,5.95369A5.95372,5.95372,0,0,0,99.32884,302.65581Z" transform="translate(-5.35791 -70.04953)"/><path class="bff41b18-e32c-41c1-a889-04dbd3cf5983" d="M99.32884,302.65581a5.95374,5.95374,0,1,0-5.9538,5.95369A5.95372,5.95372,0,0,0,99.32884,302.65581Z" transform="translate(-5.35791 -70.04953)"/><path class="e552152e-84fe-4e9d-ae46-1e7474b4d4b2" d="M160.098,302.65581c0-.177-.037-.34376-.05209-.51688a110.607,110.607,0,0,1-11.19906-5.4368H123.7596a5.95369,5.95369,0,0,0,0,11.90737h30.38457A5.95372,5.95372,0,0,0,160.098,302.65581Z" transform="translate(-5.35791 -70.04953)"/><path class="bff41b18-e32c-41c1-a889-04dbd3cf5983" d="M160.098,302.65581c0-.177-.037-.34376-.05209-.51688a110.607,110.607,0,0,1-11.19906-5.4368H123.7596a5.95369,5.95369,0,0,0,0,11.90737h30.38457A5.95372,5.95372,0,0,0,160.098,302.65581Z" transform="translate(-5.35791 -70.04953)"/><path d="M83.58964,317.23225a129.03449,129.03449,0,0,0,100.87,0Z" transform="translate(-5.35791 -70.04953)"/><path d="M91.817,245.96081a5.95106,5.95106,0,0,0-5.83279-7.15368h0a5.95375,5.95375,0,1,0,0,11.90749h0a5.94926,5.94926,0,0,0,5.83279-4.75381Z" transform="translate(-5.35791 -70.04953)"/><path class="bff41b18-e32c-41c1-a889-04dbd3cf5983" d="M44.21865,106.59308c-.17041.166-.34709.32547-.51652.49244-1.72437,1.69882-3.413,3.43438-5.04007,5.22793-.141.15554-.27214.31993-.41245.47622q-2.223,2.4745-4.312,5.06735c-.17176.21206-.33554.43051-.50583.64367h92.17936a111.85328,111.85328,0,0,1,14.58011-11.90761Z" transform="translate(-5.35791 -70.04953)"/><path d="M265.748,70.46014a128.083,128.083,0,0,0-63.64276,16.85038c.2053-.00111.40729-.01561.61284-.01561,54.275,0,99.46572,39.00634,109.28442,90.61138H263.8462A64.82185,64.82185,0,1,0,247.90206,244.635H219.93372V213.7295h90.27645v90.61125h-30.567V279.66648a110.66106,110.66106,0,0,1-76.92508,30.99605c-.45607,0-.90513-.029-1.36-.03452A128.71729,128.71729,0,1,0,265.748,70.46014Z" transform="translate(-5.35791 -70.04953)"/></svg>