<svg id="b1869c51-6962-4f32-8a06-235ba9838d02" data-name="Layer 1" xmlns="http://www.w3.org/2000/svg" viewBox="0 0 375.35953 336.35196"><defs><style>.a349d8fc-836f-4ef8-8156-877ca3447a79{opacity:0.6;}.b4d52f76-3348-49aa-b16b-82921a3ca5d5{opacity:0.5;}.bc456f1a-b155-40a6-94ed-08464dcd9443{opacity:0.8;}.e8c15dd3-effe-47df-9cc7-eadbd0bcd843{opacity:0.9;}.b939f1e0-6e20-446d-98f1-2bace1c0b368{opacity:0.7;}.f8ece672-5ee1-44ed-80c5-5ef4d5a67884{fill:#1e1e1e;}</style></defs><path d="M67.53151,342.8326a29.16411,29.16411,0,0,1-1.79935,10.42269,23.8537,23.8537,0,0,1-5.07928,8.166,22.70191,22.70191,0,0,1-7.88333,5.30849,26.583,26.583,0,0,1-10.176,1.88664A26.44858,26.44858,0,0,1,32.435,366.72983a22.7411,22.7411,0,0,1-7.86588-5.30849,23.87085,23.87085,0,0,1-5.07928-8.166,31.09716,31.09716,0,0,1,0-20.84594,24.06922,24.06922,0,0,1,5.07928-8.18294,22.82008,22.82008,0,0,1,7.86588-5.344,26.232,26.232,0,0,1,10.15856-1.90466,26.36517,26.36517,0,0,1,10.176,1.90466,22.78,22.78,0,0,1,7.88333,5.344,24.05182,24.05182,0,0,1,5.07928,8.18294A29.17159,29.17159,0,0,1,67.53151,342.8326Zm-7.01942,0a25.68944,25.68944,0,0,0-1.27-8.35978,17.68286,17.68286,0,0,0-3.59756-6.26082,15.61537,15.61537,0,0,0-5.64358-3.93266,19.157,19.157,0,0,0-7.40745-1.37583,19.0543,19.0543,0,0,0-7.372,1.37583,15.77379,15.77379,0,0,0-5.661,3.93266,17.53057,17.53057,0,0,0-3.61559,6.26082,28.09068,28.09068,0,0,0,0,16.70154,17.54477,17.54477,0,0,0,3.61559,6.24336,15.5792,15.5792,0,0,0,5.661,3.9152,19.27314,19.27314,0,0,0,7.372,1.35781,19.37721,19.37721,0,0,0,7.40745-1.35781,15.42389,15.42389,0,0,0,5.64358-3.9152,17.69753,17.69753,0,0,0,3.59756-6.24336A25.52955,25.52955,0,0,0,60.51209,342.8326Z" transform="translate(-13.64047 -43.83439)"/><path d="M74.12629,380.18635V332.35641h3.73892a1.60041,1.60041,0,0,1,1.69291,1.30544l.52938,4.23226a19.07555,19.07555,0,0,1,5.2381-4.47949,13.37929,13.37929,0,0,1,6.78964-1.69291,12.89658,12.89658,0,0,1,5.57319,1.18154,11.50524,11.50524,0,0,1,4.26831,3.49169,16.76213,16.76213,0,0,1,2.71563,5.732,29.40752,29.40752,0,0,1,.95233,7.86587,24.64661,24.64661,0,0,1-1.05821,7.35451,17.90134,17.90134,0,0,1-3.03326,5.89026,14.167,14.167,0,0,1-4.85007,3.91519,14.347,14.347,0,0,1-6.47257,1.42878,13.32244,13.32244,0,0,1-5.66105-1.09369,12.73981,12.73981,0,0,1-4.1444-3.10366v15.80215Zm15.908-43.38536a10.11223,10.11223,0,0,0-5.37889,1.41075,15.5086,15.5086,0,0,0-4.25028,3.9856V359.4812a10.0932,10.0932,0,0,0,3.79186,3.28049,10.85656,10.85656,0,0,0,4.60283.95233,9.00646,9.00646,0,0,0,7.65412-3.56265q2.68044-3.56236,2.68072-10.15856a25.367,25.367,0,0,0-.61725-5.99613,11.72769,11.72769,0,0,0-1.78132-4.10949,6.93158,6.93158,0,0,0-2.857-2.34562A9.50331,9.50331,0,0,0,90.03431,336.801Z" transform="translate(-13.64047 -43.83439)"/><path d="M125.44735,331.79211a15.95863,15.95863,0,0,1,5.92574,1.07566,13.31405,13.31405,0,0,1,4.69125,3.10423,14.15348,14.15348,0,0,1,3.0862,5.00888,19.3524,19.3524,0,0,1,1.11115,6.78964,4.09444,4.09444,0,0,1-.31763,1.97562,1.31774,1.31774,0,0,1-1.199.49334h-23.7739a19.71862,19.71862,0,0,0,.91685,5.89082,12.03741,12.03741,0,0,0,2.32817,4.17989,9.32828,9.32828,0,0,0,3.52717,2.50444,12.11441,12.11441,0,0,0,4.58537.82843,13.45771,13.45771,0,0,0,4.074-.54628,19.3625,19.3625,0,0,0,2.9454-1.1821,22.37945,22.37945,0,0,0,2.06348-1.18154,2.73362,2.73362,0,0,1,1.42878-.54629,1.38283,1.38283,0,0,1,1.199.59922l1.76386,2.29269a11.91449,11.91449,0,0,1-2.78659,2.4515,17.32806,17.32806,0,0,1-3.47479,1.71093,21.99968,21.99968,0,0,1-3.82678,1.00527,23.42015,23.42015,0,0,1-3.9152.33509,18.17088,18.17088,0,0,1-6.82512-1.2525,14.96732,14.96732,0,0,1-5.39691-3.668,16.83216,16.83216,0,0,1-3.54519-5.97867,24.31231,24.31231,0,0,1-1.2694-8.1835,20.82355,20.82355,0,0,1,1.14606-6.98394,16.467,16.467,0,0,1,3.298-5.62612,15.19053,15.19053,0,0,1,5.25555-3.73893A17.25755,17.25755,0,0,1,125.44735,331.79211Zm.1408,4.62085a9.63953,9.63953,0,0,0-7.16022,2.62778,12.36359,12.36359,0,0,0-3.245,7.28355H134.6181a12.72745,12.72745,0,0,0-.59978-4.00305,8.92691,8.92691,0,0,0-1.76386-3.13971,7.899,7.899,0,0,0-2.839-2.04545A9.58066,9.58066,0,0,0,125.58815,336.413Z" transform="translate(-13.64047 -43.83439)"/><path d="M146.50392,368.08764V332.35641h3.73893a1.6004,1.6004,0,0,1,1.6929,1.30544l.49391,3.87972a20.09056,20.09056,0,0,1,5.20318-4.16243,13.53321,13.53321,0,0,1,6.64885-1.587,12.90532,12.90532,0,0,1,5.16713.96978,10.01088,10.01088,0,0,1,3.73893,2.75168,12.16232,12.16232,0,0,1,2.27523,4.2852,18.66809,18.66809,0,0,1,.77605,5.53827v22.7506h-6.27884V345.337a9.61847,9.61847,0,0,0-1.85172-6.2963q-1.85174-2.23947-5.66105-2.23975a10.54915,10.54915,0,0,0-5.20261,1.34036,17.12353,17.12353,0,0,0-4.462,3.633v26.31325Z" transform="translate(-13.64047 -43.83439)"/><path d="M207.49077,363.11424a33.448,33.448,0,0,0,3.75638-.19429,23.77293,23.77293,0,0,0,3.22756-.58176,21.96493,21.96493,0,0,0,2.857-.93488q1.3398-.54655,2.68071-1.25194V349.005H212.182a1.49006,1.49006,0,0,1-1.07623-.388,1.2657,1.2657,0,0,1-.40548-.95233v-3.87972h15.52v19.39971a27.96312,27.96312,0,0,1-3.96814,2.39856,26.98007,26.98007,0,0,1-4.4091,1.71093,31.96864,31.96864,0,0,1-5.02634,1.02273,47.14058,47.14058,0,0,1-5.81986.33509,26.2464,26.2464,0,0,1-10.08816-1.8872,23.2105,23.2105,0,0,1-7.90079-5.29048,24.01026,24.01026,0,0,1-5.1677-8.166,28.67122,28.67122,0,0,1-1.85172-10.47563,29.36694,29.36694,0,0,1,1.81624-10.54659A22.67583,22.67583,0,0,1,197.13791,318.847a29.19076,29.19076,0,0,1,10.70541-1.86918,33.06968,33.06968,0,0,1,5.57318.441,26.1252,26.1252,0,0,1,4.77911,1.2694,22.33286,22.33286,0,0,1,4.074,2.01053,24.94554,24.94554,0,0,1,3.49225,2.66326l-1.94014,3.10423a1.78474,1.78474,0,0,1-1.55211.95232,2.495,2.495,0,0,1-1.23448-.388q-.88193-.49335-1.97506-1.19957a17.04041,17.04041,0,0,0-2.66325-1.35781,21.47346,21.47346,0,0,0-3.70344-1.11115,24.42137,24.42137,0,0,0-5.06183-.45842,20.496,20.496,0,0,0-7.72451,1.39329,16.33908,16.33908,0,0,0-5.89082,3.9856,17.64425,17.64425,0,0,0-3.73892,6.27884,24.665,24.665,0,0,0-1.30488,8.27136,25.05681,25.05681,0,0,0,1.35782,8.55351,18.05661,18.05661,0,0,0,3.82734,6.3667,16.50556,16.50556,0,0,0,5.85533,3.98559A19.68157,19.68157,0,0,0,207.49077,363.11424Z" transform="translate(-13.64047 -43.83439)"/><path d="M242.37443,321.13964a3.99811,3.99811,0,0,1-.37057,1.71093,4.93819,4.93819,0,0,1-.98781,1.41075,4.584,4.584,0,0,1-1.42822.97035,4.295,4.295,0,0,1-1.72838.35255,4.16821,4.16821,0,0,1-1.71093-.35255,4.70736,4.70736,0,0,1-2.38111-2.3811,4.16836,4.16836,0,0,1-.35254-1.71093,4.42057,4.42057,0,0,1,.35254-1.74584,4.52969,4.52969,0,0,1,.97036-1.44624,4.659,4.659,0,0,1,1.41075-.96979,4.16873,4.16873,0,0,1,1.71093-.35311,4.29563,4.29563,0,0,1,1.72838.35311,4.6017,4.6017,0,0,1,1.42822.96979,4.80117,4.80117,0,0,1,.98781,1.44624A4.23854,4.23854,0,0,1,242.37443,321.13964Zm-1.41132,11.21677v35.73123h-6.27828V332.35641Z" transform="translate(-13.64047 -43.83439)"/><path d="M261.104,368.652a8.61223,8.61223,0,0,1-6.5075-2.36309q-2.27579-2.3628-2.27523-6.80766V337.612H248.018a1.40121,1.40121,0,0,1-.95233-.33509,1.29971,1.29971,0,0,1-.388-1.04018v-2.50444l5.85534-.74058,1.44623-11.04049a1.33336,1.33336,0,0,1,.45843-.86448,1.45732,1.45732,0,0,1,.98724-.33509h3.17462v12.31046h10.229V337.612h-10.229v21.44573a4.55856,4.55856,0,0,0,1.09369,3.35089,3.8166,3.8166,0,0,0,2.82151,1.09369,4.98489,4.98489,0,0,0,1.71093-.26469,7.33689,7.33689,0,0,0,1.25194-.58176q.52967-.31764.89995-.58233a1.17529,1.17529,0,0,1,.65216-.26413,1.08255,1.08255,0,0,1,.88193.59922l1.83427,2.99835a11.7,11.7,0,0,1-3.9152,2.38111A13.31037,13.31037,0,0,1,261.104,368.652Z" transform="translate(-13.64047 -43.83439)"/><path d="M322.75985,342.8326a29.16411,29.16411,0,0,1-1.79934,10.42269,23.8537,23.8537,0,0,1-5.07928,8.166,22.70191,22.70191,0,0,1-7.88333,5.30849,28.33957,28.33957,0,0,1-20.33458,0,22.741,22.741,0,0,1-7.86588-5.30849,23.87085,23.87085,0,0,1-5.07928-8.166,31.09716,31.09716,0,0,1,0-20.84594,24.06922,24.06922,0,0,1,5.07928-8.18294,22.82,22.82,0,0,1,7.86588-5.344,28.08938,28.08938,0,0,1,20.33458,0,22.78,22.78,0,0,1,7.88333,5.344,24.05182,24.05182,0,0,1,5.07928,8.18294A29.17159,29.17159,0,0,1,322.75985,342.8326Zm-7.01942,0a25.68945,25.68945,0,0,0-1.27-8.35978,17.68286,17.68286,0,0,0-3.59756-6.26082,15.61532,15.61532,0,0,0-5.64359-3.93266,20.53319,20.53319,0,0,0-14.77941,0,15.7737,15.7737,0,0,0-5.661,3.93266,17.53043,17.53043,0,0,0-3.61559,6.26082,28.09068,28.09068,0,0,0,0,16.70154,17.54462,17.54462,0,0,0,3.61559,6.24336,15.57911,15.57911,0,0,0,5.661,3.9152,20.78755,20.78755,0,0,0,14.77941,0,15.42385,15.42385,0,0,0,5.64359-3.9152,17.69753,17.69753,0,0,0,3.59756-6.24336A25.52956,25.52956,0,0,0,315.74043,342.8326Z" transform="translate(-13.64047 -43.83439)"/><path d="M329.35464,380.18635V332.35641h3.73892a1.60042,1.60042,0,0,1,1.69291,1.30544l.52938,4.23226a19.07555,19.07555,0,0,1,5.2381-4.47949,13.37929,13.37929,0,0,1,6.78964-1.69291,12.89658,12.89658,0,0,1,5.57319,1.18154,11.50524,11.50524,0,0,1,4.26831,3.49169,16.76231,16.76231,0,0,1,2.71563,5.732,29.40752,29.40752,0,0,1,.95233,7.86587,24.64661,24.64661,0,0,1-1.05821,7.35451,17.90134,17.90134,0,0,1-3.03326,5.89026,14.167,14.167,0,0,1-4.85007,3.91519,14.347,14.347,0,0,1-6.47258,1.42878,13.32243,13.32243,0,0,1-5.661-1.09369,12.73974,12.73974,0,0,1-4.14441-3.10366v15.80215Zm15.908-43.38536a10.11223,10.11223,0,0,0-5.37889,1.41075,15.50863,15.50863,0,0,0-4.25029,3.9856V359.4812a10.09335,10.09335,0,0,0,3.79186,3.28049,10.85664,10.85664,0,0,0,4.60284.95233,9.00646,9.00646,0,0,0,7.65412-3.56265q2.68042-3.56236,2.68071-10.15856a25.36706,25.36706,0,0,0-.61724-5.99613,11.72787,11.72787,0,0,0-1.78132-4.10949,6.93158,6.93158,0,0,0-2.857-2.34562A9.50334,9.50334,0,0,0,345.26266,336.801Z" transform="translate(-13.64047 -43.83439)"/><path d="M386.98946,338.24722a1.39218,1.39218,0,0,1-1.30544.77606,2.449,2.449,0,0,1-1.199-.388q-.67074-.38775-1.64053-.86447a15.46522,15.46522,0,0,0-2.31015-.88193,11.04644,11.04644,0,0,0-3.17462-.40549,9.38753,9.38753,0,0,0-2.857.40549A6.8746,6.8746,0,0,0,372.33338,338a4.92473,4.92473,0,0,0-1.37584,1.64053,4.40726,4.40726,0,0,0-.47588,2.028,3.37983,3.37983,0,0,0,.79352,2.29268,6.88444,6.88444,0,0,0,2.099,1.587,18.20883,18.20883,0,0,0,2.96287,1.18211q1.65743.51108,3.40383,1.09312,1.74612.582,3.40383,1.28742a12.368,12.368,0,0,1,2.96287,1.76387,8.06593,8.06593,0,0,1,2.09839,2.59229A7.93423,7.93423,0,0,1,389,357.153a11.68094,11.68094,0,0,1-.88193,4.56792,9.97108,9.97108,0,0,1-2.61032,3.633,12.58493,12.58493,0,0,1-4.23283,2.416,17.38666,17.38666,0,0,1-5.78438.88194,18.0391,18.0391,0,0,1-6.77274-1.217,17.1479,17.1479,0,0,1-5.14968-3.12168l1.48171-2.39856a2.14387,2.14387,0,0,1,.67018-.7051,1.88181,1.88181,0,0,1,1.02273-.24723,2.36687,2.36687,0,0,1,1.34036.4939q.70538.49419,1.71092,1.09369a13.13413,13.13413,0,0,0,2.43349,1.09312,11.06909,11.06909,0,0,0,3.5801.49391,9.828,9.828,0,0,0,3.2101-.47589,6.74318,6.74318,0,0,0,2.29269-1.28741,5.09962,5.09962,0,0,0,1.35782-1.86975,5.80625,5.80625,0,0,0,.441-2.2572,3.74631,3.74631,0,0,0-.79351-2.45151,6.70249,6.70249,0,0,0-2.099-1.658,17.09784,17.09784,0,0,0-2.98032-1.199q-1.676-.51108-3.42129-1.07623-1.74613-.56345-3.42186-1.28742a11.99289,11.99289,0,0,1-2.98032-1.81624,8.22923,8.22923,0,0,1-2.099-2.69817,8.72991,8.72991,0,0,1-.79351-3.89774,9.51031,9.51031,0,0,1,.84645-3.93322,9.64668,9.64668,0,0,1,2.46953-3.31541,12.15136,12.15136,0,0,1,3.98559-2.27523,15.94955,15.94955,0,0,1,5.39691-.84645,17.0733,17.0733,0,0,1,6.33122,1.11114,14.9912,14.9912,0,0,1,4.85007,3.05129Z" transform="translate(-13.64047 -43.83439)"/><path class="a349d8fc-836f-4ef8-8156-877ca3447a79" d="M62.96124,192.54808a5.68223,5.68223,0,0,1,5.68215-5.682H31.80788a5.68209,5.68209,0,1,1,0,11.36417H68.64339A5.68217,5.68217,0,0,1,62.96124,192.54808Z" transform="translate(-13.64047 -43.83439)"/><path class="b4d52f76-3348-49aa-b16b-82921a3ca5d5" d="M62.96136,138.86231a5.6818,5.6818,0,0,1,5.68086-5.682H18.24948c-.13824.48884-.28387.97441-.41626,1.46571q-.36039,1.33672-.69076,2.68495-.38026,1.55042-.71937,3.1168c-.19734.90733-.38788,1.81736-.56517,2.73243-.08771.4525-.16076.90991-.24355,1.36417h53.029A5.682,5.682,0,0,1,62.96136,138.86231Z" transform="translate(-13.64047 -43.83439)"/><path class="bc456f1a-b155-40a6-94ed-08464dcd9443" d="M68.64339,133.18016l-.00117.00012h1.17667a5.682,5.682,0,1,1,0,11.36406H98.156a105.99957,105.99957,0,0,1,3.09581-11.36418Z" transform="translate(-13.64047 -43.83439)"/><path class="b4d52f76-3348-49aa-b16b-82921a3ca5d5" d="M75.501,138.86231a5.68192,5.68192,0,0,0-5.68214-5.682H68.64222a5.682,5.682,0,0,0,.00117,11.36406h1.1755A5.682,5.682,0,0,0,75.501,138.86231Z" transform="translate(-13.64047 -43.83439)"/><path class="bc456f1a-b155-40a6-94ed-08464dcd9443" d="M75.501,138.86231a5.68192,5.68192,0,0,0-5.68214-5.682H68.64222a5.682,5.682,0,0,0,.00117,11.36406h1.1755A5.682,5.682,0,0,0,75.501,138.86231Z" transform="translate(-13.64047 -43.83439)"/><path class="e8c15dd3-effe-47df-9cc7-eadbd0bcd843" d="M62.96124,120.44456a5.6821,5.6821,0,0,1,5.68215-5.68215H25.09529a121.99867,121.99867,0,0,0-4.62379,11.36417H68.64339A5.682,5.682,0,0,1,62.96124,120.44456Z" transform="translate(-13.64047 -43.83439)"/><path class="a349d8fc-836f-4ef8-8156-877ca3447a79" d="M89.0205,114.76241a5.68209,5.68209,0,0,1,0,11.36417h14.838a106.22742,106.22742,0,0,1,5.512-11.36417Z" transform="translate(-13.64047 -43.83439)"/><path d="M94.70253,120.44456a5.68193,5.68193,0,0,0-5.682-5.68215H68.64339a5.68209,5.68209,0,1,0,0,11.36417H89.0205A5.68181,5.68181,0,0,0,94.70253,120.44456Z" transform="translate(-13.64047 -43.83439)"/><path class="b939f1e0-6e20-446d-98f1-2bace1c0b368" d="M82.16286,102.81043a5.682,5.682,0,0,1,5.682-5.682H41.99644a5.682,5.682,0,0,1,.00117,11.36406h45.8461A5.6818,5.6818,0,0,1,82.16286,102.81043Z" transform="translate(-13.64047 -43.83439)"/><path d="M47.67847,102.81043a5.682,5.682,0,0,0-5.682-5.682H35.18535a122.831,122.831,0,0,0-6.95919,11.36418H41.99644l.00117-.00012A5.6818,5.6818,0,0,0,47.67847,102.81043Z" transform="translate(-13.64047 -43.83439)"/><path class="bc456f1a-b155-40a6-94ed-08464dcd9443" d="M105.08714,97.1284a5.682,5.682,0,0,1,0,11.36406H87.84371l.00118.00012h25.32276a106.928,106.928,0,0,1,8.56878-11.36418Z" transform="translate(-13.64047 -43.83439)"/><path class="b939f1e0-6e20-446d-98f1-2bace1c0b368" d="M110.76917,102.81043a5.682,5.682,0,0,0-5.682-5.682H87.84489a5.682,5.682,0,0,0-.00118,11.36406h17.24343A5.682,5.682,0,0,0,110.76917,102.81043Z" transform="translate(-13.64047 -43.83439)"/><path class="bc456f1a-b155-40a6-94ed-08464dcd9443" d="M110.76917,102.81043a5.682,5.682,0,0,0-5.682-5.682H87.84489a5.682,5.682,0,0,0-.00118,11.36406h17.24343A5.682,5.682,0,0,0,110.76917,102.81043Z" transform="translate(-13.64047 -43.83439)"/><path class="b939f1e0-6e20-446d-98f1-2bace1c0b368" d="M94.70253,66.75867a5.682,5.682,0,0,1,5.682-5.682H73.67875c-.17812.106-.362.20332-.5395.31026-.51077.30768-1.01076.63073-1.51672.94556-1.05472.65652-2.10253,1.32289-3.13544,2.01013-.56483.37581-1.12368.75948-1.68182,1.14431q-1.46107,1.00729-2.89085,2.05563c-.53973.39551-1.08.79043-1.6131,1.19438-1.01392.76873-2.01083,1.55834-2.99978,2.35744-.43291.3499-.87344.69076-1.30155,1.04629-.11761.09767-.22935.202-.34661.30017h42.73118A5.68214,5.68214,0,0,1,94.70253,66.75867Z" transform="translate(-13.64047 -43.83439)"/><path class="b4d52f76-3348-49aa-b16b-82921a3ca5d5" d="M100.77643,61.07664a5.68209,5.68209,0,1,1,0,11.36417h51.99493a105.164,105.164,0,0,1,36.536-11.36417Z" transform="translate(-13.64047 -43.83439)"/><path d="M106.45869,66.75867a5.682,5.682,0,0,0-5.68226-5.682h-.39187a5.68209,5.68209,0,0,0,0,11.36417h.39187A5.68219,5.68219,0,0,0,106.45869,66.75867Z" transform="translate(-13.64047 -43.83439)"/><path d="M136.43644,43.83439a122.3964,122.3964,0,0,0-49.0009,10.18855h98.00179A122.39682,122.39682,0,0,0,136.43644,43.83439Z" transform="translate(-13.64047 -43.83439)"/><path class="a349d8fc-836f-4ef8-8156-877ca3447a79" d="M33.37537,150.81417a5.68215,5.68215,0,0,1,0,11.36429H95.92024a107.494,107.494,0,0,1,1.08416-11.36429Z" transform="translate(-13.64047 -43.83439)"/><path class="f8ece672-5ee1-44ed-80c5-5ef4d5a67884" d="M39.0574,156.49644a5.68218,5.68218,0,0,0-5.682-5.68227H14.64079c-.07868.60892-.16263,1.21607-.23228,1.8278-.09674.85011-.19066,1.70128-.26993,2.5562-.10682,1.15123-.189,2.30925-.26383,3.46939-.05452.84613-.113,1.6912-.15044,2.54248-.01407.32128-.01278.64644-.02439.96842H33.37537A5.68212,5.68212,0,0,0,39.0574,156.49644Z" transform="translate(-13.64047 -43.83439)"/><path class="bc456f1a-b155-40a6-94ed-08464dcd9443" d="M13.64047,168.84017c.06625,3.83254.29209,7.625.70155,11.36417H96.6572a107.77958,107.77958,0,0,1-.806-11.36417Z" transform="translate(-13.64047 -43.83439)"/><path class="bc456f1a-b155-40a6-94ed-08464dcd9443" d="M68.64339,186.86605a5.68209,5.68209,0,1,0,0,11.36417H100.478a106.22168,106.22168,0,0,1-2.78485-11.36417Z" transform="translate(-13.64047 -43.83439)"/><path class="b4d52f76-3348-49aa-b16b-82921a3ca5d5" d="M25.734,192.54808a5.682,5.682,0,0,1,5.682-5.682H15.26436c.141.85211.29631,1.69929.45461,2.54541.16193.86524.31237,1.73411.49236,2.593.23475,1.12.50479,2.22682.76979,3.33537.1957.8188.37651,1.64358.58839,2.45547.03811.14634.08478.28892.12347.4349H31.416A5.682,5.682,0,0,1,25.734,192.54808Z" transform="translate(-13.64047 -43.83439)"/><path class="b939f1e0-6e20-446d-98f1-2bace1c0b368" d="M37.49,192.54808a5.68222,5.68222,0,0,0-5.68215-5.682H31.416a5.68209,5.68209,0,0,0,0,11.36417h.39187A5.68217,5.68217,0,0,0,37.49,192.54808Z" transform="translate(-13.64047 -43.83439)"/><polygon class="b4d52f76-3348-49aa-b16b-82921a3ca5d5" points="76.947 172.422 76.948 172.422 76.948 172.422 76.947 172.422"/><path class="b4d52f76-3348-49aa-b16b-82921a3ca5d5" d="M90.588,204.89193a5.68209,5.68209,0,1,1,0,11.36418h17.30065a106.16294,106.16294,0,0,1-5.10771-11.36418Z" transform="translate(-13.64047 -43.83439)"/><polygon class="b4d52f76-3348-49aa-b16b-82921a3ca5d5" points="76.948 161.058 76.947 161.058 76.948 161.058 76.948 161.058"/><path class="b939f1e0-6e20-446d-98f1-2bace1c0b368" d="M92.79969,215.80959a5.6925,5.6925,0,0,0,3.355-4.09038A5.69277,5.69277,0,0,1,92.79969,215.80959Z" transform="translate(-13.64047 -43.83439)"/><path class="b939f1e0-6e20-446d-98f1-2bace1c0b368" d="M84.90585,210.57408a5.68217,5.68217,0,0,1,5.68214-5.68215H19.67591c.21576.65992.44007,1.31562.66673,1.9705.33887.97921.676,1.95925,1.03889,2.92732.3445.91906.71245,1.82639,1.07818,2.73478.38565.958.77049,1.91632,1.17936,2.86188.12652.29232.26465.57843.39328.8697H90.588A5.68214,5.68214,0,0,1,84.90585,210.57408Z" transform="translate(-13.64047 -43.83439)"/><path class="b939f1e0-6e20-446d-98f1-2bace1c0b368" d="M96.15464,209.42895a5.69247,5.69247,0,0,0-3.355-4.0905A5.69294,5.69294,0,0,1,96.15464,209.42895Z" transform="translate(-13.64047 -43.83439)"/><path class="b939f1e0-6e20-446d-98f1-2bace1c0b368" d="M96.15464,211.71921a5.73447,5.73447,0,0,0,0-2.29026,5.74032,5.74032,0,0,1,0,2.29026Z" transform="translate(-13.64047 -43.83439)"/><path class="bc456f1a-b155-40a6-94ed-08464dcd9443" d="M27.82467,224.09355c.09228.17436.17682.35341.27.52718.68748,1.28279,1.41306,2.54189,2.1444,3.79736.32785.56284.63775,1.13728.97428,1.69436q1.62888,2.69651,3.38532,5.30411c.0095.01384.01994.02709.02932.041H120.7218a106.87772,106.87772,0,0,1-8.30494-11.36405Z" transform="translate(-13.64047 -43.83439)"/><path class="a349d8fc-836f-4ef8-8156-877ca3447a79" d="M87.84489,253.48348a5.68209,5.68209,0,0,1,0-11.36417H39.50942q.38714.49669.77812.99023,1.53126,1.92366,3.13932,3.78364c.46093.53387.91554,1.07337,1.38538,1.59927,1.45328,1.62658,2.9408,3.222,4.4764,4.76778.07258.073.14035.15055.21305.22337h90.62376l-.00012-.00012Z" transform="translate(-13.64047 -43.83439)"/><path class="a349d8fc-836f-4ef8-8156-877ca3447a79" d="M82.16286,247.80146a5.682,5.682,0,0,0,5.682,5.682h52.28044a106.82662,106.82662,0,0,1-13.34417-11.36417H87.84489A5.68214,5.68214,0,0,0,82.16286,247.80146Z" transform="translate(-13.64047 -43.83439)"/><path class="e8c15dd3-effe-47df-9cc7-eadbd0bcd843" d="M82.16286,247.80146a5.682,5.682,0,0,0,5.682,5.682h52.28044a106.82662,106.82662,0,0,1-13.34417-11.36417H87.84489A5.68214,5.68214,0,0,0,82.16286,247.80146Z" transform="translate(-13.64047 -43.83439)"/><path class="b4d52f76-3348-49aa-b16b-82921a3ca5d5" d="M161.32008,265.82734a5.68207,5.68207,0,0,1-5.68215,5.682h26.10593a105.10223,105.10223,0,0,1-20.4735-6.17532C161.28478,265.49925,161.32008,265.65837,161.32008,265.82734Z" transform="translate(-13.64047 -43.83439)"/><path class="b4d52f76-3348-49aa-b16b-82921a3ca5d5" d="M120.95772,265.82734a5.682,5.682,0,0,1,5.682-5.682h23.94254l-.00023-.00012H56.74863c.29666.25316.585.51546.884.7658.50373.42178,1.01321.83675,1.52387,1.25055q1.39546,1.13094,2.8253,2.22025c.51276.39152,1.02388.7848,1.5431,1.16835,1.0804.79817,2.17851,1.57335,3.28577,2.33658.3921.27027.77635.5511,1.17174.81692q2.1553,1.44912,4.37649,2.80572H97.64157a5.682,5.682,0,1,1,5.68215-5.682,5.682,5.682,0,0,1-5.68215,5.682h28.99818A5.682,5.682,0,0,1,120.95772,265.82734Z" transform="translate(-13.64047 -43.83439)"/><path class="b4d52f76-3348-49aa-b16b-82921a3ca5d5" d="M103.32372,265.82734a5.68209,5.68209,0,1,0-5.68215,5.682A5.68207,5.68207,0,0,0,103.32372,265.82734Z" transform="translate(-13.64047 -43.83439)"/><path class="e8c15dd3-effe-47df-9cc7-eadbd0bcd843" d="M103.32372,265.82734a5.68209,5.68209,0,1,0-5.68215,5.682A5.68207,5.68207,0,0,0,103.32372,265.82734Z" transform="translate(-13.64047 -43.83439)"/><path class="b4d52f76-3348-49aa-b16b-82921a3ca5d5" d="M161.32008,265.82734c0-.169-.0353-.32809-.04972-.4933a105.56088,105.56088,0,0,1-10.68807-5.18873H126.63975a5.682,5.682,0,1,0,0,11.36405h28.99818A5.68207,5.68207,0,0,0,161.32008,265.82734Z" transform="translate(-13.64047 -43.83439)"/><path class="e8c15dd3-effe-47df-9cc7-eadbd0bcd843" d="M161.32008,265.82734c0-.169-.0353-.32809-.04972-.4933a105.56088,105.56088,0,0,1-10.68807-5.18873H126.63975a5.682,5.682,0,1,0,0,11.36405h28.99818A5.68207,5.68207,0,0,0,161.32008,265.82734Z" transform="translate(-13.64047 -43.83439)"/><path d="M88.30266,279.73868a123.147,123.147,0,0,0,96.26756,0Z" transform="translate(-13.64047 -43.83439)"/><path d="M96.15464,211.71921a5.67955,5.67955,0,0,0-5.56665-6.82728h0a5.68209,5.68209,0,1,0,0,11.36418h0a5.67784,5.67784,0,0,0,5.56665-4.5369Z" transform="translate(-13.64047 -43.83439)"/><path class="e8c15dd3-effe-47df-9cc7-eadbd0bcd843" d="M50.72808,78.71053c-.16263.15842-.33125.31062-.493.47-1.64569,1.62131-3.25727,3.27768-4.8101,4.98939-.13461.14845-.25973.30534-.39363.45449q-2.12152,2.3616-4.11525,4.83613c-.16392.20239-.32022.41087-.48274.61431h87.9734a106.74882,106.74882,0,0,1,13.91486-11.36429Z" transform="translate(-13.64047 -43.83439)"/><path d="M262.14951,44.22626a122.23894,122.23894,0,0,0-60.73888,16.08153c.19594-.00106.38871-.01489.58488-.01489,51.79852,0,94.92731,37.22655,104.298,86.477h-45.959a61.86418,61.86418,0,1,0-15.21665,63.684H218.42564V180.95854H304.583V267.4354h-29.1723V243.887a105.61188,105.61188,0,0,1-73.41516,29.58176c-.43526,0-.86383-.02767-1.29792-.033A122.84419,122.84419,0,1,0,262.14951,44.22626Z" transform="translate(-13.64047 -43.83439)"/></svg>