<svg id="a822b304-8b1a-4115-9083-7fac406665a6" data-name="Layer 1" xmlns="http://www.w3.org/2000/svg" viewBox="0 0 774.75583 189.33581"><defs><style>.a3bb0bba-9440-4e8c-815f-ac8f0047391f,.b1993283-bc51-432f-b6d2-bfe0d9842087,.bf742846-f2a8-4b9a-b26b-dd4cb2e2159f,.e76f5206-4abd-48b8-9113-437ac7066fd4,.e8f38f84-e5a4-439f-bf29-e9e634e1f6e9,.f80cf81e-c4f8-4c52-a34c-b3a611d27d0f,.fcdc9709-c1a9-4839-b0e4-380ecb78eb2b{fill:#fff;}.f6100f14-c817-4050-9041-a47fd2875036,.fcdc9709-c1a9-4839-b0e4-380ecb78eb2b{opacity:0.5;}.e76f5206-4abd-48b8-9113-437ac7066fd4{opacity:0.6;}.b1993283-bc51-432f-b6d2-bfe0d9842087{opacity:0.9;}.bf742846-f2a8-4b9a-b26b-dd4cb2e2159f{opacity:0.8;}.e8f38f84-e5a4-439f-bf29-e9e634e1f6e9{opacity:0.7;}.f6100f14-c817-4050-9041-a47fd2875036{fill:none;stroke:#fff;stroke-linecap:round;stroke-linejoin:round;stroke-width:0;}.a3bb0bba-9440-4e8c-815f-ac8f0047391f{opacity:0.95;}</style></defs><path class="fcdc9709-c1a9-4839-b0e4-380ecb78eb2b" d="M48.19,145.17662a4.37169,4.37169,0,0,1,4.37156-4.37157h-28.34a4.37161,4.37161,0,0,1,0,8.74322h28.34A4.37165,4.37165,0,0,1,48.19,145.17662Z" transform="translate(-10.24417 -30.7611)"/><path class="e76f5206-4abd-48b8-9113-437ac7066fd4" d="M48.19,103.87252A4.3714,4.3714,0,0,1,52.56073,99.501H13.79019c-.10645.37646-.21859.75039-.32053,1.12875q-.27673,1.0264-.53045,2.06147-.29338,1.1961-.55491,2.40437c-.15156.69672-.29779,1.39542-.43393,2.0981-.06757.3484-.12386.70069-.18755,1.05044H52.56163A4.37154,4.37154,0,0,1,48.19,103.87252Z" transform="translate(-10.24417 -30.7611)"/><path class="b1993283-bc51-432f-b6d2-bfe0d9842087" d="M52.56163,99.50086l-.0009.00009h.9053a4.37157,4.37157,0,0,1,0,8.74313H72.31146a81.55462,81.55462,0,0,1,2.38182-8.74322Z" transform="translate(-10.24417 -30.7611)"/><path class="e76f5206-4abd-48b8-9113-437ac7066fd4" d="M57.83759,103.87252A4.3714,4.3714,0,0,0,53.466,99.501h-.9053a4.37157,4.37157,0,0,0,.0009,8.74313h.9044A4.37146,4.37146,0,0,0,57.83759,103.87252Z" transform="translate(-10.24417 -30.7611)"/><path class="b1993283-bc51-432f-b6d2-bfe0d9842087" d="M57.83759,103.87252A4.3714,4.3714,0,0,0,53.466,99.501h-.9053a4.37157,4.37157,0,0,0,.0009,8.74313h.9044A4.37146,4.37146,0,0,0,57.83759,103.87252Z" transform="translate(-10.24417 -30.7611)"/><path class="bf742846-f2a8-4b9a-b26b-dd4cb2e2159f" d="M48.19,89.70249a4.37154,4.37154,0,0,1,4.37156-4.37166H19.05713a93.86127,93.86127,0,0,0-3.55739,8.74323h37.0618A4.37152,4.37152,0,0,1,48.19,89.70249Z" transform="translate(-10.24417 -30.7611)"/><path class="fcdc9709-c1a9-4839-b0e4-380ecb78eb2b" d="M68.239,85.33083a4.37162,4.37162,0,1,1,0,8.74323h8.45978a81.72893,81.72893,0,0,1,4.24075-8.74323Z" transform="translate(-10.24417 -30.7611)"/><path class="bf742846-f2a8-4b9a-b26b-dd4cb2e2159f" d="M72.6107,89.70249A4.37151,4.37151,0,0,0,68.239,85.33083H52.56154a4.37162,4.37162,0,0,0,0,8.74323H68.239A4.37149,4.37149,0,0,0,72.6107,89.70249Z" transform="translate(-10.24417 -30.7611)"/><path class="bf742846-f2a8-4b9a-b26b-dd4cb2e2159f" d="M72.6107,89.70249A4.37151,4.37151,0,0,0,68.239,85.33083H52.56154a4.37162,4.37162,0,0,0,0,8.74323H68.239A4.37149,4.37149,0,0,0,72.6107,89.70249Z" transform="translate(-10.24417 -30.7611)"/><path class="e76f5206-4abd-48b8-9113-437ac7066fd4" d="M62.963,76.13536a4.37155,4.37155,0,0,1,4.37166-4.37157H32.06024a4.37157,4.37157,0,0,1,.0009,8.74314H67.33375A4.37141,4.37141,0,0,1,62.963,76.13536Z" transform="translate(-10.24417 -30.7611)"/><path class="f80cf81e-c4f8-4c52-a34c-b3a611d27d0f" d="M36.4319,76.13536a4.37155,4.37155,0,0,0-4.37166-4.37157H26.8201A94.50466,94.50466,0,0,0,21.46592,80.507H32.06024l.0009-.00009A4.37141,4.37141,0,0,0,36.4319,76.13536Z" transform="translate(-10.24417 -30.7611)"/><path class="bf742846-f2a8-4b9a-b26b-dd4cb2e2159f" d="M80.60019,71.76379a4.37157,4.37157,0,1,1,0,8.74314H67.33375l.0009.00009H83.861a82.26628,82.26628,0,0,1,6.59254-8.74323Z" transform="translate(-10.24417 -30.7611)"/><path class="e76f5206-4abd-48b8-9113-437ac7066fd4" d="M84.97185,76.13536a4.3716,4.3716,0,0,0-4.37166-4.37157H67.33465a4.37157,4.37157,0,0,0-.0009,8.74314H80.60019A4.37154,4.37154,0,0,0,84.97185,76.13536Z" transform="translate(-10.24417 -30.7611)"/><path class="bf742846-f2a8-4b9a-b26b-dd4cb2e2159f" d="M84.97185,76.13536a4.3716,4.3716,0,0,0-4.37166-4.37157H67.33465a4.37157,4.37157,0,0,0-.0009,8.74314H80.60019A4.37154,4.37154,0,0,0,84.97185,76.13536Z" transform="translate(-10.24417 -30.7611)"/><path class="e8f38f84-e5a4-439f-bf29-e9e634e1f6e9" d="M72.6107,48.3983a4.37146,4.37146,0,0,1,4.37157-4.37157H56.43568c-.1374.08182-.27922.15688-.41616.23934-.39144.23582-.77493.48345-1.16267.72477-.813.506-1.62078,1.01978-2.417,1.5496-.43339.28832-.86208.58278-1.29042.878q-1.12587.77607-2.22755,1.58406c-.41471.30393-.82979.60705-1.23927.91756-.78025.59144-1.54725,1.19912-2.30829,1.814-.33307.26919-.67209.53144-1.00137.805-.09048.07515-.17646.15544-.26667.231h32.876A4.3716,4.3716,0,0,1,72.6107,48.3983Z" transform="translate(-10.24417 -30.7611)"/><path class="e76f5206-4abd-48b8-9113-437ac7066fd4" d="M77.28376,44.02673a4.37162,4.37162,0,1,1,0,8.74323h37.047a80.91066,80.91066,0,0,1,28.10974-8.74323Z" transform="translate(-10.24417 -30.7611)"/><path class="f80cf81e-c4f8-4c52-a34c-b3a611d27d0f" d="M81.65551,48.3983a4.37156,4.37156,0,0,0-4.37175-4.37157h-.30149a4.37162,4.37162,0,0,0,0,8.74323h.30149A4.37169,4.37169,0,0,0,81.65551,48.3983Z" transform="translate(-10.24417 -30.7611)"/><path class="f80cf81e-c4f8-4c52-a34c-b3a611d27d0f" d="M104.71942,30.7611a94.16788,94.16788,0,0,0-37.69971,7.83874h75.39942A94.16788,94.16788,0,0,0,104.71942,30.7611Z" transform="translate(-10.24417 -30.7611)"/><line class="f6100f14-c817-4050-9041-a47fd2875036" x1="15.18339" y1="91.05012" x2="0.04574" y2="91.05012"/><path class="fcdc9709-c1a9-4839-b0e4-380ecb78eb2b" d="M28.63177,113.06789a4.37162,4.37162,0,0,1,0,8.74323H25.42846l-.0009.00009h45.1638a82.70328,82.70328,0,0,1,.83411-8.74332Z" transform="translate(-10.24417 -30.7611)"/><path class="a3bb0bba-9440-4e8c-815f-ac8f0047391f" d="M10.24417,126.93652c.051,2.94863.22472,5.8664.53974,8.74322H71.15835a82.92174,82.92174,0,0,1-.62013-8.74322Z" transform="translate(-10.24417 -30.7611)"/><path class="f80cf81e-c4f8-4c52-a34c-b3a611d27d0f" d="M52.56154,140.80505a4.37161,4.37161,0,0,0,0,8.74322H74.098a81.72212,81.72212,0,0,1-2.14257-8.74322Z" transform="translate(-10.24417 -30.7611)"/><path class="e8f38f84-e5a4-439f-bf29-e9e634e1f6e9" d="M19.54852,145.17662a4.37158,4.37158,0,0,1,4.37157-4.37157H11.49353c.10862.65684.22833,1.3099.35039,1.96214.12441.66442.23988,1.33173.37818,1.99138.18079.863.38891,1.7155.59315,2.56964.15012.62807.28878,1.26073.45125,1.88357.02959.11313.06559.22355.09554.33649h10.558A4.37154,4.37154,0,0,1,19.54852,145.17662Z" transform="translate(-10.24417 -30.7611)"/><path class="f80cf81e-c4f8-4c52-a34c-b3a611d27d0f" d="M28.59315,145.17662a4.37164,4.37164,0,0,0-4.37157-4.37157h-.30149a4.37161,4.37161,0,0,0,0,8.74322h.30149A4.3716,4.3716,0,0,0,28.59315,145.17662Z" transform="translate(-10.24417 -30.7611)"/><polygon class="fcdc9709-c1a9-4839-b0e4-380ecb78eb2b" points="59.201 123.912 59.201 123.912 59.201 123.912 59.201 123.912"/><polygon class="fcdc9709-c1a9-4839-b0e4-380ecb78eb2b" points="59.201 132.656 59.201 132.656 59.201 132.656 59.201 132.656"/><path class="fcdc9709-c1a9-4839-b0e4-380ecb78eb2b" d="M69.4451,154.67358a4.34092,4.34092,0,0,1,4.22245,3.29622c.02409.09445.05151.18638.06928.28318a4.36123,4.36123,0,0,1-4.29173,5.16383H79.79946a81.67743,81.67743,0,0,1-3.92971-8.74323Z" transform="translate(-10.24417 -30.7611)"/><path class="e8f38f84-e5a4-439f-bf29-e9e634e1f6e9" d="M73.66755,157.9698a4.37185,4.37185,0,0,0-2.52084-2.95269A4.37141,4.37141,0,0,1,73.66755,157.9698Z" transform="translate(-10.24417 -30.7611)"/><path class="e8f38f84-e5a4-439f-bf29-e9e634e1f6e9" d="M71.14671,163.07327a4.31975,4.31975,0,0,0,2.59012-4.82029,4.32042,4.32042,0,0,1-2.59012,4.82029Z" transform="translate(-10.24417 -30.7611)"/><path class="e8f38f84-e5a4-439f-bf29-e9e634e1f6e9" d="M65.07344,159.04515a4.37166,4.37166,0,0,1,4.37166-4.37157H14.88764c.166.50772.33857,1.01219.513,1.516.26072.75337.52017,1.50738.79929,2.25218.265.70709.54814,1.40517.82952,2.10405.29671.737.59279,1.47436.90737,2.20184.09734.2249.20361.445.30257.66912H69.4451A4.37169,4.37169,0,0,1,65.07344,159.04515Z" transform="translate(-10.24417 -30.7611)"/><path class="bf742846-f2a8-4b9a-b26b-dd4cb2e2159f" d="M21.157,169.44668c.07127.1346.13667.2729.20857.40713.52829.98559,1.08581,1.95322,1.64775,2.91787.25269.43375.49158.87643.75085,1.30575q1.25321,2.07461,2.60456,4.08081l.02255.03158H89.67288a82.2273,82.2273,0,0,1-6.38956-8.74314Z" transform="translate(-10.24417 -30.7611)"/><path class="fcdc9709-c1a9-4839-b0e4-380ecb78eb2b" d="M67.33465,192.05835a4.37162,4.37162,0,1,1,0-8.74323H30.1469q.29865.38323.60028.76384,1.17621,1.47769,2.41159,2.9065c.35571.412.70637.82834,1.06894,1.23412,1.11766,1.251,2.26184,2.4779,3.44282,3.66673.05594.05621.10808.116.1641.17213h66.76679l-.00009-.00009Z" transform="translate(-10.24417 -30.7611)"/><path class="fcdc9709-c1a9-4839-b0e4-380ecb78eb2b" d="M62.963,187.68678a4.3716,4.3716,0,0,0,4.37166,4.37157h37.26668a82.18831,82.18831,0,0,1-10.26657-8.74323H67.33465A4.37168,4.37168,0,0,0,62.963,187.68678Z" transform="translate(-10.24417 -30.7611)"/><path class="b1993283-bc51-432f-b6d2-bfe0d9842087" d="M62.963,187.68678a4.3716,4.3716,0,0,0,4.37166,4.37157h37.26668a82.18831,82.18831,0,0,1-10.26657-8.74323H67.33465A4.37168,4.37168,0,0,0,62.963,187.68678Z" transform="translate(-10.24417 -30.7611)"/><path class="fcdc9709-c1a9-4839-b0e4-380ecb78eb2b" d="M131.17825,205.92688h5.443c-1.05027-.20361-2.09025-.43411-3.12572-.67768A4.337,4.337,0,0,1,131.17825,205.92688Z" transform="translate(-10.24417 -30.7611)"/><path class="fcdc9709-c1a9-4839-b0e4-380ecb78eb2b" d="M104.49641,201.55531a4.37166,4.37166,0,0,1,4.37157-4.37166H74.8719a4.37162,4.37162,0,0,1,0,8.74323H108.868A4.37158,4.37158,0,0,1,104.49641,201.55531Z" transform="translate(-10.24417 -30.7611)"/><path class="fcdc9709-c1a9-4839-b0e4-380ecb78eb2b" d="M70.50024,201.55531a4.37168,4.37168,0,0,1,4.37166-4.37166H43.41019c.22833.19486.45035.39676.68057.58955.387.32387.77827.64277,1.17061.96068q1.075.8712,2.1765,1.71036c.39405.30068.78666.603,1.18549.89763.83141.61417,1.67626,1.21057,2.52824,1.79786.30167.208.5973.424.9015.62852q1.65822,1.1149,3.36713,2.15863H74.8719A4.3716,4.3716,0,0,1,70.50024,201.55531Z" transform="translate(-10.24417 -30.7611)"/><path class="f80cf81e-c4f8-4c52-a34c-b3a611d27d0f" d="M79.24347,201.55531a4.37162,4.37162,0,1,0-4.37157,4.37157A4.37166,4.37166,0,0,0,79.24347,201.55531Z" transform="translate(-10.24417 -30.7611)"/><path class="f80cf81e-c4f8-4c52-a34c-b3a611d27d0f" d="M112.64639,197.18365H108.868a4.37162,4.37162,0,0,0,0,8.74323h22.31027a4.337,4.337,0,0,0,2.31731-.67768A80.96673,80.96673,0,0,1,112.64639,197.18365Z" transform="translate(-10.24417 -30.7611)"/><path class="f80cf81e-c4f8-4c52-a34c-b3a611d27d0f" d="M67.68684,212.25825a94.74529,94.74529,0,0,0,74.06516,0Z" transform="translate(-10.24417 -30.7611)"/><path class="b1993283-bc51-432f-b6d2-bfe0d9842087" d="M29.79913,117.43964a4.37162,4.37162,0,0,0-4.37157-4.37175H11.01378q-.55712,4.31509-.72388,8.74323H25.42846A4.37148,4.37148,0,0,0,29.79913,117.43964Z" transform="translate(-10.24417 -30.7611)"/><path class="fcdc9709-c1a9-4839-b0e4-380ecb78eb2b" d="M33.00333,117.43955a4.37154,4.37154,0,0,0-4.37156-4.37166H25.42756a4.37162,4.37162,0,0,1,.0009,8.74323h3.20331A4.37152,4.37152,0,0,0,33.00333,117.43955Z" transform="translate(-10.24417 -30.7611)"/><path class="b1993283-bc51-432f-b6d2-bfe0d9842087" d="M33.00333,117.43955a4.37154,4.37154,0,0,0-4.37156-4.37166H25.42756a4.37162,4.37162,0,0,1,.0009,8.74323h3.20331A4.37152,4.37152,0,0,0,33.00333,117.43955Z" transform="translate(-10.24417 -30.7611)"/><path class="f80cf81e-c4f8-4c52-a34c-b3a611d27d0f" d="M73.81667,159.04515a4.373,4.373,0,0,0-.07984-.79217c-.01777-.0968-.04519-.18873-.06928-.28318a4.34092,4.34092,0,0,0-4.22245-3.29622h0a4.37162,4.37162,0,1,0,0,8.74323h0a4.36793,4.36793,0,0,0,4.37157-4.37166Z" transform="translate(-10.24417 -30.7611)"/><path class="b1993283-bc51-432f-b6d2-bfe0d9842087" d="M38.77817,57.59368c-.12548.12215-.25548.2397-.38025.36257-1.26578,1.247-2.50541,2.52111-3.69974,3.83768-.10366.1143-.2.23519-.30321.35q-1.63157,1.81627-3.16478,3.71914c-.12639.15616-.247.317-.37241.4739h64.7277a82.12223,82.12223,0,0,1,10.70564-8.74332Z" transform="translate(-10.24417 -30.7611)"/><path class="f80cf81e-c4f8-4c52-a34c-b3a611d27d0f" d="M198.48289,31.06259A94.04665,94.04665,0,0,0,151.75235,43.4352c.15075-.00081.29906-.01146.45-.01146a81.80449,81.80449,0,0,1,80.24352,66.5326H197.08638a47.59629,47.59629,0,1,0-11.70719,48.99643h-20.536V136.26h66.28658v66.5325H208.6855V184.67509a81.254,81.254,0,0,1-56.48316,22.75926c-.33488,0-.66461-.02129-.99849-.02535a94.51232,94.51232,0,1,0,47.279-176.34641Z" transform="translate(-10.24417 -30.7611)"/><path class="f80cf81e-c4f8-4c52-a34c-b3a611d27d0f" d="M374.79439,129.13392a37.21433,37.21433,0,0,1-2.296,13.29974,30.43813,30.43813,0,0,1-6.48134,10.42017,28.96827,28.96827,0,0,1-10.05943,6.77383,36.16235,36.16235,0,0,1-25.94767,0,29.01814,29.01814,0,0,1-10.03714-6.77383,30.45986,30.45986,0,0,1-6.48135-10.42017,39.68113,39.68113,0,0,1,0-26.60019,30.7132,30.7132,0,0,1,6.48135-10.44173,29.11932,29.11932,0,0,1,10.03714-6.81911,35.843,35.843,0,0,1,25.94767,0,29.06829,29.06829,0,0,1,10.05943,6.81911,30.69115,30.69115,0,0,1,6.48134,10.44173A37.22389,37.22389,0,0,1,374.79439,129.13392Zm-8.957,0a32.78077,32.78077,0,0,0-1.62052-10.66738,22.56384,22.56384,0,0,0-4.59063-7.989,19.9257,19.9257,0,0,0-7.20141-5.01821,26.201,26.201,0,0,0-18.85908,0,20.128,20.128,0,0,0-7.2237,5.01821,22.3696,22.3696,0,0,0-4.61362,7.989,35.84462,35.84462,0,0,0,0,21.31177,22.38766,22.38766,0,0,0,4.61362,7.96676,19.87979,19.87979,0,0,0,7.2237,4.99594,26.52564,26.52564,0,0,0,18.85908,0,19.68152,19.68152,0,0,0,7.20141-4.99594,22.58251,22.58251,0,0,0,4.59063-7.96676A32.57667,32.57667,0,0,0,365.83736,129.13392Z" transform="translate(-10.24417 -30.7611)"/><path class="f80cf81e-c4f8-4c52-a34c-b3a611d27d0f" d="M383.20958,176.79867V115.76592h4.771a2.04219,2.04219,0,0,1,2.16021,1.66579l.67551,5.40052a24.34108,24.34108,0,0,1,6.684-5.716,17.07258,17.07258,0,0,1,8.66384-2.16021,16.45642,16.45642,0,0,1,7.11159,1.50769,14.68109,14.68109,0,0,1,5.44652,4.45552,21.38926,21.38926,0,0,1,3.46524,7.31425,37.52477,37.52477,0,0,1,1.21521,10.03714,31.45,31.45,0,0,1-1.35031,9.38462,22.84265,22.84265,0,0,1-3.87056,7.51618,18.0776,18.0776,0,0,1-6.18886,4.99594,18.30733,18.30733,0,0,1-8.25925,1.82317,16.99972,16.99972,0,0,1-7.22369-1.39559,16.25639,16.25639,0,0,1-5.28842-3.96038v20.16411Zm20.29922-55.3613a12.90361,12.90361,0,0,0-6.86366,1.80017,19.78956,19.78956,0,0,0-5.42352,5.08577v22.05483a12.87939,12.87939,0,0,0,4.83855,4.186,13.85346,13.85346,0,0,0,5.87339,1.21521q6.34589,0,9.76694-4.54607,3.42033-4.54572,3.42069-12.9627a32.36937,32.36937,0,0,0-.78762-7.65128,14.965,14.965,0,0,0-2.273-5.24387,8.84493,8.84493,0,0,0-3.64562-2.9931A12.12675,12.12675,0,0,0,403.5088,121.43737Z" transform="translate(-10.24417 -30.7611)"/><path class="f80cf81e-c4f8-4c52-a34c-b3a611d27d0f" d="M448.69714,115.04585a20.36371,20.36371,0,0,1,7.56146,1.37259,16.989,16.989,0,0,1,5.98621,3.9611,18.06058,18.06058,0,0,1,3.93811,6.39152,24.6946,24.6946,0,0,1,1.41786,8.66383,5.22469,5.22469,0,0,1-.40531,2.521,1.6815,1.6815,0,0,1-1.53.62952H435.32914a25.16153,25.16153,0,0,0,1.16993,7.5169,15.36032,15.36032,0,0,0,2.97083,5.33369,11.90331,11.90331,0,0,0,4.5008,3.19576,15.45849,15.45849,0,0,0,5.8511,1.05711,17.17283,17.17283,0,0,0,5.19859-.69707,24.70906,24.70906,0,0,0,3.75845-1.50841,28.55216,28.55216,0,0,0,2.63307-1.5077,3.4883,3.4883,0,0,1,1.82317-.69707,1.76451,1.76451,0,0,1,1.53.76463l2.25076,2.92555A15.20432,15.20432,0,0,1,463.46,158.097a22.11177,22.11177,0,0,1-4.434,2.1832,28.07122,28.07122,0,0,1-4.88311,1.28276,29.885,29.885,0,0,1-4.99593.42759,23.18666,23.18666,0,0,1-8.70911-1.59824,19.09907,19.09907,0,0,1-6.88666-4.68045,21.47878,21.47878,0,0,1-4.52379-7.629,31.02349,31.02349,0,0,1-1.6198-10.44245,26.57155,26.57155,0,0,1,1.46242-8.91177,21.01252,21.01252,0,0,1,4.20831-7.17914,19.38392,19.38392,0,0,1,6.70628-4.771A22.02124,22.02124,0,0,1,448.69714,115.04585Zm.17966,5.89638q-5.80582,0-9.13669,3.35314a15.7764,15.7764,0,0,0-4.14077,9.29408h24.8a16.24071,16.24071,0,0,0-.76534-5.108,11.391,11.391,0,0,0-2.25076-4.00637,10.07927,10.07927,0,0,0-3.62263-2.61008A12.2253,12.2253,0,0,0,448.8768,120.94223Z" transform="translate(-10.24417 -30.7611)"/><path class="f80cf81e-c4f8-4c52-a34c-b3a611d27d0f" d="M475.5661,161.36029V115.76592h4.771a2.04219,2.04219,0,0,1,2.16021,1.66579l.63025,4.95066A25.637,25.637,0,0,1,489.767,117.071a17.269,17.269,0,0,1,8.48418-2.0251,16.46763,16.46763,0,0,1,6.59346,1.23748,12.77421,12.77421,0,0,1,4.771,3.51124,15.51945,15.51945,0,0,1,2.90327,5.46808,23.82069,23.82069,0,0,1,.99028,7.067v29.03061h-8.012V132.32968q0-5.17631-2.36286-8.03431-2.36286-2.85765-7.2237-2.858a13.46107,13.46107,0,0,0-6.63872,1.71034,21.85034,21.85034,0,0,0-5.69373,4.6359v33.57668Z" transform="translate(-10.24417 -30.7611)"/><path class="f80cf81e-c4f8-4c52-a34c-b3a611d27d0f" d="M553.38756,155.014a42.67963,42.67963,0,0,0,4.79328-.24793,30.33349,30.33349,0,0,0,4.11848-.74234,28.03,28.03,0,0,0,3.64562-1.19293q1.70964-.69744,3.4207-1.59752V137.01014h-9.99187a1.90136,1.90136,0,0,1-1.37331-.49514,1.61507,1.61507,0,0,1-.51742-1.21521v-4.95066h19.80408v24.75474a35.68233,35.68233,0,0,1-5.06348,3.06066,34.42831,34.42831,0,0,1-5.62618,2.1832,40.794,40.794,0,0,1-6.41379,1.305,60.151,60.151,0,0,1-7.42636.42759,33.49127,33.49127,0,0,1-12.87286-2.40814,29.61735,29.61735,0,0,1-10.0817-6.75084,30.63809,30.63809,0,0,1-6.59417-10.42017,36.58536,36.58536,0,0,1-2.36287-13.36729,37.47326,37.47326,0,0,1,2.31759-13.45783,28.93508,28.93508,0,0,1,17.01363-17.14873,37.24822,37.24822,0,0,1,13.66049-2.38515,42.19914,42.19914,0,0,1,7.11159.56269,33.33689,33.33689,0,0,1,6.09832,1.6198,28.498,28.498,0,0,1,5.19859,2.56552,31.83156,31.83156,0,0,1,4.45624,3.39842l-2.47569,3.9611a2.2774,2.2774,0,0,1-1.98055,1.21521,3.18377,3.18377,0,0,1-1.57525-.49514q-1.12537-.62952-2.52024-1.53069a21.74459,21.74459,0,0,0-3.39842-1.73262,27.39891,27.39891,0,0,0-4.72573-1.41786,31.16215,31.16215,0,0,0-6.45907-.585,26.1533,26.1533,0,0,0-9.85676,1.7779,20.84925,20.84925,0,0,0-7.5169,5.08576,22.51476,22.51476,0,0,0-4.771,8.012,31.47358,31.47358,0,0,0-1.66507,10.55456,31.97358,31.97358,0,0,0,1.73262,10.9146,23.04082,23.04082,0,0,0,4.88383,8.12414,21.06161,21.06161,0,0,0,7.47162,5.08576A25.11442,25.11442,0,0,0,553.38756,155.014Z" transform="translate(-10.24417 -30.7611)"/><path class="f80cf81e-c4f8-4c52-a34c-b3a611d27d0f" d="M597.90038,101.45291a5.10173,5.10173,0,0,1-.47286,2.18321,6.30124,6.30124,0,0,1-1.26048,1.80017,5.84941,5.84941,0,0,1-1.82245,1.23821,5.48078,5.48078,0,0,1-2.20548.44986,5.31883,5.31883,0,0,1-2.18321-.44986,6.00668,6.00668,0,0,1-3.03838-3.03838,5.3189,5.3189,0,0,1-.44986-2.18321,5.64075,5.64075,0,0,1,.44986-2.22776,5.78012,5.78012,0,0,1,1.2382-1.84545,5.94535,5.94535,0,0,1,1.80018-1.23749,5.31946,5.31946,0,0,1,2.18321-.45058,5.48149,5.48149,0,0,1,2.20548.45058A5.87194,5.87194,0,0,1,596.167,97.3797a6.12646,6.12646,0,0,1,1.26048,1.84545A5.40856,5.40856,0,0,1,597.90038,101.45291Zm-1.80089,14.313v45.59437h-8.01132V115.76592Z" transform="translate(-10.24417 -30.7611)"/><path class="f80cf81e-c4f8-4c52-a34c-b3a611d27d0f" d="M621.8,162.08036q-5.40052,0-8.3038-3.01538-2.904-3.015-2.90328-8.68684V122.4722H605.1018a1.78805,1.78805,0,0,1-1.21521-.42759,1.65849,1.65849,0,0,1-.49513-1.32731v-3.19576l7.47162-.945,1.84545-14.08808a1.70135,1.70135,0,0,1,.585-1.1031,1.85962,1.85962,0,0,1,1.25976-.42759h4.05093v15.70859h13.05253v5.80584H618.60419v27.36553a5.81693,5.81693,0,0,0,1.39559,4.27587,4.87009,4.87009,0,0,0,3.60035,1.39558,6.36052,6.36052,0,0,0,2.1832-.33776,9.361,9.361,0,0,0,1.59752-.74234q.67589-.40531,1.14838-.74307a1.49967,1.49967,0,0,1,.83217-.337,1.38136,1.38136,0,0,1,1.12538.76463l2.34059,3.826a14.9296,14.9296,0,0,1-4.99593,3.03838A16.9845,16.9845,0,0,1,621.8,162.08036Z" transform="translate(-10.24417 -30.7611)"/><path class="f80cf81e-c4f8-4c52-a34c-b3a611d27d0f" d="M700.47514,129.13392a37.21433,37.21433,0,0,1-2.296,13.29974,30.438,30.438,0,0,1-6.48135,10.42017,28.96814,28.96814,0,0,1-10.05942,6.77383,36.16235,36.16235,0,0,1-25.94767,0,29.018,29.018,0,0,1-10.03714-6.77383,30.45986,30.45986,0,0,1-6.48135-10.42017,39.68113,39.68113,0,0,1,0-26.60019,30.7132,30.7132,0,0,1,6.48135-10.44173,29.11922,29.11922,0,0,1,10.03714-6.81911,35.843,35.843,0,0,1,25.94767,0,29.06816,29.06816,0,0,1,10.05942,6.81911,30.691,30.691,0,0,1,6.48135,10.44173A37.22389,37.22389,0,0,1,700.47514,129.13392Zm-8.957,0a32.781,32.781,0,0,0-1.62051-10.66738,22.56414,22.56414,0,0,0-4.59063-7.989,19.92565,19.92565,0,0,0-7.20142-5.01821,26.201,26.201,0,0,0-18.85908,0,20.12783,20.12783,0,0,0-7.22369,5.01821,22.36945,22.36945,0,0,0-4.61362,7.989,35.84462,35.84462,0,0,0,0,21.31177,22.38751,22.38751,0,0,0,4.61362,7.96676,19.87966,19.87966,0,0,0,7.22369,4.99594,26.52564,26.52564,0,0,0,18.85908,0,19.68147,19.68147,0,0,0,7.20142-4.99594,22.58281,22.58281,0,0,0,4.59063-7.96676A32.57694,32.57694,0,0,0,691.5181,129.13392Z" transform="translate(-10.24417 -30.7611)"/><path class="f80cf81e-c4f8-4c52-a34c-b3a611d27d0f" d="M708.89033,176.79867V115.76592h4.771a2.04219,2.04219,0,0,1,2.16021,1.66579l.67552,5.40052a24.34108,24.34108,0,0,1,6.684-5.716,17.07256,17.07256,0,0,1,8.66384-2.16021,16.45634,16.45634,0,0,1,7.11158,1.50769,14.681,14.681,0,0,1,5.44652,4.45552,21.38908,21.38908,0,0,1,3.46525,7.31425,37.52477,37.52477,0,0,1,1.21521,10.03714,31.4503,31.4503,0,0,1-1.35031,9.38462,22.84284,22.84284,0,0,1-3.87056,7.51618,18.07769,18.07769,0,0,1-6.18886,4.99594,18.30733,18.30733,0,0,1-8.25925,1.82317,16.9998,16.9998,0,0,1-7.2237-1.39559,16.25635,16.25635,0,0,1-5.28841-3.96038v20.16411Zm20.29922-55.3613a12.90359,12.90359,0,0,0-6.86366,1.80017,19.78956,19.78956,0,0,0-5.42352,5.08577v22.05483a12.87939,12.87939,0,0,0,4.83855,4.186,13.85341,13.85341,0,0,0,5.87338,1.21521q6.3459,0,9.76694-4.54607,3.42033-4.54572,3.42069-12.9627a32.36937,32.36937,0,0,0-.78762-7.65128,14.96514,14.96514,0,0,0-2.273-5.24387,8.845,8.845,0,0,0-3.64563-2.9931A12.1267,12.1267,0,0,0,729.18955,121.43737Z" transform="translate(-10.24417 -30.7611)"/><path class="f80cf81e-c4f8-4c52-a34c-b3a611d27d0f" d="M782.43448,123.28282a1.77647,1.77647,0,0,1-1.66579.99027,3.125,3.125,0,0,1-1.53-.49514q-.85588-.49478-2.09338-1.1031a19.73548,19.73548,0,0,0-2.94783-1.12538,14.09635,14.09635,0,0,0-4.05093-.51741,11.97923,11.97923,0,0,0-3.64562.51741,8.77259,8.77259,0,0,0-2.76818,1.41787,6.28392,6.28392,0,0,0-1.75562,2.09337,5.62372,5.62372,0,0,0-.60724,2.5878,4.31289,4.31289,0,0,0,1.01255,2.92555,8.78513,8.78513,0,0,0,2.67835,2.02511,23.23582,23.23582,0,0,0,3.78072,1.50841q2.11494.65215,4.34342,1.39487,2.22812.74269,4.34342,1.64279a15.78179,15.78179,0,0,1,3.78072,2.25076,10.29255,10.29255,0,0,1,2.67763,3.30786A10.12454,10.12454,0,0,1,785,147.40732a14.90515,14.90515,0,0,1-1.12538,5.82883,12.72336,12.72336,0,0,1-3.33086,4.6359,16.059,16.059,0,0,1-5.40124,3.08293,22.18633,22.18633,0,0,1-7.38108,1.12538,23.01869,23.01869,0,0,1-8.64228-1.553A21.88156,21.88156,0,0,1,752.548,156.544l1.89073-3.06065a2.73548,2.73548,0,0,1,.85517-.89973,2.40128,2.40128,0,0,1,1.305-.31548,3.02014,3.02014,0,0,1,1.71034.63024q.90009.6306,2.18321,1.39558a16.75912,16.75912,0,0,0,3.10521,1.39487,14.1246,14.1246,0,0,0,4.56835.63024,12.54114,12.54114,0,0,0,4.09621-.60724,8.60455,8.60455,0,0,0,2.92555-1.6428,6.50716,6.50716,0,0,0,1.73262-2.38586,7.40878,7.40878,0,0,0,.56269-2.88028,4.78043,4.78043,0,0,0-1.01255-3.12821,8.55233,8.55233,0,0,0-2.67835-2.11565,21.81677,21.81677,0,0,0-3.803-1.53q-2.13865-.65215-4.36569-1.37331-2.22813-.719-4.36642-1.64279a15.30391,15.30391,0,0,1-3.803-2.31759,10.50064,10.50064,0,0,1-2.67834-3.443,11.13961,11.13961,0,0,1-1.01256-4.97366,12.13545,12.13545,0,0,1,1.08011-5.01893,12.30955,12.30955,0,0,1,3.1512-4.23059,15.50581,15.50581,0,0,1,5.08577-2.90328,20.35212,20.35212,0,0,1,6.88665-1.0801,21.786,21.786,0,0,1,8.07887,1.41786,19.12924,19.12924,0,0,1,6.18887,3.89355Z" transform="translate(-10.24417 -30.7611)"/></svg>